<svg xmlns="http://www.w3.org/2000/svg" width="1893.25" height="1888.1" fill="none" overflow="visible" preserveAspectRatio="none" style="display:block"><g fill="#fff" opacity=".4"><path d="M324.099 957.815c-9.051 4.268-29.359 10.596-40.322 11.92-18.689 2.281-36.422 2.87-47.164-3.237-12.582-7.064-13.76-25.385 0-34.436 10.374-6.842 27.371-7.578 46.428-5.15 11.332 1.472 31.492 7.137 40.984 11.626 19.866 9.565 14.201 12.508 0 19.13m75.934 44.442-9.86-17.659c-4.341-7.284-13.538-24.208-13.318-37.893.148-9.566 6.622-25.312 10.817-34.583l5.886-11.772 7.946-16.703c2.576-7.358 4.047-15.01 3.974-22.957-.515-48.636-56.509-90.649-154.811-76.228-75.934 11.184-177.18 46.65-237.44 69.533-16.85 6.401-18.837 29.211 1.839 34.803 0 0 33.626 9.418 44.074 8.756 33.552-1.987 143.259-60.483 207.199-70.931 58.422-9.639 112.209 4.93 115.152 37.673 3.09 34.288-22.589 64.97-22.883 65.338-6.255 7.432-17.144 8.903-25.238 3.532-12.288-8.167-28.181-17.144-46.208-23.472-51.137-18.027-91.459 10.669-93.74 38.924v.956c2.943 28.255 43.853 54.963 94.55 35.907 17.364-6.549 32.669-15.599 44.662-23.913 8.02-5.592 18.984-4.268 25.532 2.869.295.295 24.502 24.355 25.164 64.68.663 41.2-55.699 47.53-114.342 39.14-62.69-8.9-178.65-70.268-208.892-68.207-15.672 1.107-43.485 11.327-43.485 11.327-17.291 5.15-21.853 27.3-1.03 34.81 61.512 22.29 165.333 55.55 238.618 64.38 98.67 11.92 153.633-30.68 153.118-79.25 0-9.71-2.575-19.05-6.328-27.59z"/><path d="M559.412 951.184c-4.93 2.575-15.893 6.401-21.853 7.211-10.154 1.398-19.72 1.692-25.532-1.913-6.843-4.268-7.505-15.378 0-20.897 5.665-4.12 14.863-4.635 25.164-3.09 6.107.883 17.07 4.267 22.221 7.063 10.742 5.813 7.652 7.579 0 11.626m41.131 27.004-5.298-10.743c-2.355-4.415-7.358-14.716-7.211-23.03.074-5.813 3.605-15.378 5.886-20.97l3.164-7.211 4.342-10.154c1.324-4.415 2.207-9.124 2.133-13.98-.294-29.579-30.609-55.038-83.88-46.282-41.131 6.77-96.021 28.328-128.69 42.235-9.124 3.9-10.228 17.733.956 21.117 0 0 18.248 5.739 23.914 5.372 18.174-1.251 77.626-36.79 112.282-43.118 31.712-5.813 60.776 3.017 62.395 22.957 1.619 20.823-12.288 39.438-12.435 39.733-3.385 4.488-9.271 5.371-13.686 2.133-6.696-4.929-15.304-10.448-25.017-14.274-27.739-10.963-49.519 6.475-50.843 23.619v.589c1.545 17.144 23.766 33.405 51.211 21.853 9.418-3.974 17.733-9.492 24.208-14.569 4.341-3.385 10.227-2.649 13.833 1.692.147.147 13.244 14.79 13.612 39.292.368 25.021-30.168 28.841-61.954 23.761-33.994-5.44-96.757-42.671-113.165-41.42-8.535.662-23.545 6.916-23.545 6.916-9.345 3.164-11.773 16.634-.515 21.194 33.331 13.54 89.619 33.77 129.278 39.14 53.493 7.29 83.292-18.69 82.998-48.12 0-5.886-1.398-11.552-3.458-16.776l-.515-.883zM1569.52 935.143c9.42-4.562 29.65-10.154 40.91-11.625 19.06-2.502 36.05-1.693 46.43 5.077 13.76 9.124 12.65 27.371 0 34.435-10.75 6.033-28.48 5.518-47.17 3.237-11.03-1.324-31.27-7.652-40.32-11.92-14.13-6.695-19.79-9.638 0-19.13m-76.96 65.043c-3.83 8.61-6.26 17.88-6.33 27.59-.52 48.49 54.45 91.17 153.12 79.25 73.21-8.83 177.03-42.09 238.54-64.38 20.82-7.58 16.26-29.73-1.03-34.88 0 0-27.81-10.228-43.48-11.332-30.32-2.133-146.21 59.232-208.9 68.212-58.64 8.31-115 2.06-114.34-39.15.66-40.319 24.87-64.306 25.17-64.674 6.55-7.137 17.51-8.388 25.53-2.87 11.92 8.315 27.3 17.439 44.66 23.914 50.7 19.13 91.61-7.652 94.55-35.907v-.9570000000000001c-2.28-28.254-42.6-56.95-93.74-38.923-18.03 6.328-33.92 15.304-46.21 23.472-8.09 5.371-19.05 3.9-25.23-3.532-.3-.368-26.05-31.124-22.89-65.412 3.02-32.743 56.73-47.312 115.15-37.746 63.94 10.522 173.65 68.944 207.2 71.004 10.52.588 44.08-8.756 44.08-8.756 20.67-5.592 18.69-28.402 1.84-34.803-60.27-22.957-161.51-58.422-237.44-69.533-98.31-14.421-154.23 27.593-154.74 76.155-.07 8.02 1.4 15.672 3.9 23.03l7.94 16.776 5.89 11.773c4.2 9.271 10.6 25.017 10.82 34.509.22 13.759-8.91 30.609-13.32 37.967l-9.79 17.659-.95 1.474z"/><path d="M1334.15 936.099c5.15-2.796 16.04-6.18 22.22-7.137 10.31-1.472 19.5-1.03 25.17 3.164 7.5 5.518 6.84 16.629 0 20.97-5.81 3.679-15.38 3.311-25.53 1.913-5.96-.809-16.93-4.635-21.86-7.284-7.65-4.047-10.74-5.813 0-11.626m-41.72 39.512c-2.06 5.224-3.38 10.89-3.45 16.776-.3 29.433 29.5 55.403 82.99 48.123 39.66-5.37 95.95-25.53 129.28-39.07 11.33-4.564 8.83-18.029-.51-21.193 0 0-15.09-6.254-23.55-6.917-16.41-1.25-79.24 35.98-113.16 41.43-31.79 5.07-62.32 1.17-61.96-23.771.3-24.502 13.47-39.07 13.62-39.291 3.53-4.341 9.49-5.077 13.83-1.766 6.47 5.077 14.79 10.596 24.21 14.569 27.44 11.552 49.66-4.636 51.21-21.853v-.589c-1.25-17.217-23.11-34.582-50.77-23.692-9.79 3.899-18.4 9.344-25.02 14.274-4.41 3.311-10.3 2.428-13.69-2.134-.14-.221-14.12-18.91-12.43-39.733 1.62-19.94 30.76-28.769 62.4-22.956 34.65 6.401 94.1 41.866 112.28 43.044 5.74.367 23.91-5.298 23.91-5.298 11.18-3.458 10.08-17.291.96-21.191-32.67-13.906-87.56-35.465-128.69-42.235-53.27-8.755-83.59 16.777-83.88 46.282 0 4.856.73 9.565 2.13 13.98l4.34 10.154 3.17 7.211c2.28 5.592 5.73 15.231 5.81 20.97.15 8.314-4.78 18.615-7.21 23.03l-5.3 10.743-.52.883zM957.536 1564.62c4.121 9.12 10.081 29.58 11.184 40.62 1.987 18.69 2.208 36.42-3.973 47.01-7.284 12.44-25.606 13.32-34.435-.66-6.622-10.52-7.137-27.52-4.268-46.5 1.693-11.26 7.653-31.42 12.362-40.69 9.933-19.72 12.802-14.05 19.13.22m45.844-75.12-17.884 9.49c-7.431 4.27-24.428 13.09-38.114 12.65-9.565-.36-25.164-7.13-34.361-11.48l-11.699-6.1-16.556-8.32c-7.284-2.65-15.01-4.26-22.883-4.34-48.636-.37-91.68 54.82-79.024 153.34 9.712 76.16 43.412 178.06 65.191 238.69 6.107 16.93 28.843 19.35 34.803-1.17 0 0 10.007-33.41 9.566-43.93-1.398-33.55-57.834-144.36-67.178-208.45-8.535-58.64 6.99-112.06 39.806-114.42 34.288-2.5 64.529 23.77 64.897 24.14 7.284 6.32 8.609 17.29 3.09 25.31-8.388 12.14-17.659 27.88-24.354 45.76-18.984 50.85 9.05 91.61 37.231 94.48h.956c28.255-2.5 55.773-42.9 37.599-94.03-6.254-17.44-15.01-32.89-23.104-45.03-5.371-8.1-3.899-19.06 3.311-25.46.295-.3 24.797-24.06 65.047-23.99 41.2 0 46.5 56.51 37.08 115-10.08 62.47-73.504 177.33-71.959 207.65.809 15.67 10.599 43.63 10.599 43.63 4.78 17.36 26.85 22.29 34.8 1.62 23.4-61.07 58.49-164.31 68.72-237.37 13.76-98.45-27.88-154.22-76.37-154.59-9.79 0-19.06 2.21-27.74 5.89l-1.47.88z"/><path d="M955.217 1329.24c2.502 4.93 6.107 15.96 6.843 22 1.177 10.15 1.324 19.72-2.428 25.53-4.341 6.77-15.526 7.21-20.897-.37-4.047-5.66-4.341-14.93-2.649-25.24.957-6.1 4.636-16.99 7.505-22.07 6.034-10.67 7.726-7.51 11.626.15m27.739-40.69-10.816 5.15c-4.488 2.28-14.863 7.06-23.177 6.77-5.813-.22-15.305-3.9-20.897-6.26l-7.137-3.31-10.08-4.49c-4.415-1.47-9.124-2.35-13.98-2.35-29.579-.29-55.626 29.58-47.827 83 6.034 41.27 26.636 96.53 39.954 129.42 3.752 9.2 17.585 10.52 21.117-.59 0 0 6.033-18.1 5.739-23.76-.883-18.18-35.318-78.29-41.057-113.02-5.298-31.79 4.047-60.78 23.987-61.95 20.823-1.25 39.217 12.95 39.512 13.17 4.414 3.46 5.224 9.34 1.839 13.68-5.077 6.55-10.669 15.16-14.716 24.8-11.478 27.52 5.592 49.67 22.736 51.21h.589c17.144-1.32 33.846-23.18 22.736-50.84-3.826-9.49-9.197-17.88-14.127-24.43-3.311-4.42-2.428-10.3 1.986-13.76.148-.15 15.084-13.02 39.512-12.95 25.091 0 28.331 30.68 22.661 62.39-6.03 33.85-44.44 96.03-43.41 112.43.442 8.54 6.475 23.62 6.475 23.62 2.943 9.49 16.405 12.14 21.195.96 14.12-33.11 35.31-88.96 41.42-128.54 8.24-53.35-17.14-83.66-46.57-83.88a46 46 0 0 0-16.854 3.16l-.883.44zM415.692 1263.46c-5.813 8.09-20.455 23.54-29.358 30.09-15.231 11.18-30.388 20.23-42.676 20.23-14.422 0-24.355-15.37-16.776-30.09 5.739-11.04 20.16-20.01 38.04-27.15 10.596-4.19 30.977-9.2 41.425-9.86 22.001-1.4 18.542 3.97 9.492 16.7m87.927 1.7-17.217-10.6c-7.432-4.27-23.619-14.5-30.168-26.64-4.488-8.38-6.622-25.31-7.505-35.46l-.662-13.17-1.177-18.54c-1.398-7.58-3.826-15.09-7.8-22-24.207-42.17-93.519-51.51-172.249 9.19-60.85 46.8-131.854 127.3-173.206 176.74-11.551 13.83-2.133 34.66 18.616 29.51 0 0 33.92-8.17 42.75-13.91 28.254-18.17 95.432-122.73 146.128-163.13 46.281-37.01 100.289-50.47 118.904-23.39 19.425 28.4 11.994 67.76 11.92 68.2-1.839 9.5-10.595 16.19-20.308 15.46-14.716-1.11-32.963-1.18-51.8 2.06-53.418 9.27-74.535 54-62.763 79.83 0 0 .147.29.295.37 0 .14.147.29.22.44 16.335 23.1 65.118 26.56 99.995-14.94 11.919-14.2 20.896-29.58 27.224-42.67 4.194-8.76 14.421-13.03 23.619-10.01.368.15 33.258 9.27 53.492 44.15 20.749 35.54-25.385 68.65-80.569 90.06-59.011 22.81-190.203 25.97-215.514 42.6-13.171 8.61-32.375 31.12-32.375 31.12-12.582 12.88-5.666 34.44 16.114 30.83 64.602-10.66 171.366-32.37 239.648-60.48 91.9-37.82 118.977-101.83 94.917-143.92-4.856-8.46-11.552-15.3-19.057-21.04l-1.545-.74z"/><path d="M617.735 1142.64c-3.017 4.71-10.743 13.39-15.525 17-8.094 6.18-16.335 11.18-23.178 10.81-8.02-.44-14.053-9.78-10.227-18.32 2.869-6.33 10.742-11.33 20.455-15.01 5.813-2.21 16.997-4.56 22.809-4.63 12.215-.23 10.449 2.86 5.74 10.15m49.077 3.46-9.86-6.77c-4.267-2.72-13.612-9.27-17.585-16.63-2.723-5.08-4.341-15.16-5.151-21.19l-.735-7.8-1.178-11.04c-.956-4.56-2.575-9.05-4.929-13.24-14.716-25.68-53.566-33.11-95.801.59-32.595 25.97-69.9 71.66-91.606 99.77-6.034 7.8-.221 20.38 11.184 17.95 0 0 18.689-3.9 23.472-7.06 15.231-9.93 49.739-69.97 76.89-92.49 24.796-20.6 54.523-27.08 65.633-10.52 11.626 17.36 8.609 40.47 8.535 40.76-.736 5.59-5.445 9.27-10.89 8.54-8.24-1.11-18.468-1.62-28.843-.22-29.505 3.97-40.027 29.87-32.742 45.47 0 0 .073.15.147.29l.147.22c9.786 14.2 37.084 17.52 55.331-6.03 6.255-8.02 10.817-16.92 13.981-24.5 2.133-5.08 7.725-7.29 12.95-5.3.22.07 18.762 6.48 31.05 27.59 12.582 21.63-12.214 39.96-42.382 51.07-32.301 11.84-105.365 10-118.977 19.13-7.138 4.71-17.144 17.51-17.144 17.51-6.696 7.28-2.208 20.23 9.859 18.76 35.686-4.49 94.623-14.35 131.928-29.06 50.181-19.8 63.499-57.03 48.93-82.56-2.943-5.15-6.916-9.42-11.257-12.95l-.883-.51zM647.122 1488.68c-.883 9.93-5.739 30.61-10.227 40.84-7.505 17.29-16.04 32.81-26.636 39-12.435 7.28-28.843-.96-29.652-17.52-.589-12.36 7.358-27.44 19.13-42.6 6.99-8.98 22.148-23.54 30.756-29.36 18.322-12.21 18.027-5.88 16.556 9.72m76.817-42.9-20.235-.52c-8.535 0-27.739-.59-39.438-7.72-8.094-5.01-18.469-18.54-24.281-26.86l-7.211-11.04-10.375-15.37c-5.003-5.89-10.89-11.11-17.806-15.09-42.161-24.21-106.764 2.65-144.215 94.7-28.917 71.08-49.74 176.37-60.556 239.87-3.017 17.73 15.599 31.05 30.903 16.04 0 0 25.091-24.14 29.947-33.55 15.231-29.95 20.602-154.15 44-214.56 21.412-55.26 61.218-94.11 90.944-80.06 31.051 14.72 44.516 52.47 44.663 52.98 3.237 9.12-1.03 19.28-9.786 23.47-13.318 6.48-29.138 15.6-43.706 27.89-41.499 34.95-37.231 84.25-14.054 100.58 0 0 .294.22.442.3.147 0 .22.14.367.29 25.827 11.7 69.606-9.93 78.951-63.35 3.164-18.25 3.164-36.05 2.06-50.55-.736-9.71 5.887-18.54 15.378-20.53.368 0 33.405-8.75 68.503 11.11 35.833 20.31 12.655 72.11-24.282 118.39-39.512 49.45-151.205 118.17-164.744 145.32-7.063 14.05-12.287 43.19-12.287 43.19-4.341 17.51 12.435 32.67 29.505 18.54 50.402-41.72 131.707-114.27 176.517-172.91 60.335-78.95 51.505-147.97 9.418-172.17-8.462-4.86-17.659-7.44-27.004-8.54h-1.692z"/><path d="M760.783 1282.51c-.22 5.52-2.501 17-4.856 22.52-3.899 9.42-8.535 17.88-14.642 21.04-7.211 3.75-17.07-1.4-18.027-10.67-.736-6.91 3.532-15.15 10.08-23.25 3.9-4.78 12.362-12.51 17.365-15.45 10.448-6.33 10.448-2.8 10.08 5.89m44.148-21.78-11.92-.89c-5.003-.14-16.408-1.1-23.545-5.44-4.93-3.02-11.405-10.89-15.158-15.67l-4.561-6.4-6.549-8.91c-3.164-3.46-6.769-6.55-10.963-8.9-25.606-14.79-62.984-1.62-82.483 48.78-15.083 38.93-24.281 97.13-28.916 132.37-1.251 9.86 10.154 17.81 18.762 9.86 0 0 14.128-12.8 16.703-17.88 8.167-16.26 7.726-85.5 19.793-118.61 11.11-30.31 33.478-50.84 51.432-42.16 18.836 9.12 27.813 30.61 27.96 30.83 2.134 5.15 0 10.74-5.151 12.88-7.578 3.23-16.702 7.87-24.943 14.34-23.546 18.33-19.572 45.99-5.445 55.85 0 0 .147.07.221.15 0 0 .147.07.22.15 15.599 7.28 40.837-3.61 44.81-33.19 1.398-10.08.81-20.01-.221-28.18-.735-5.44 2.944-10.15 8.462-11.04.221 0 19.499-3.9 40.763 8.17 21.78 12.36 9.565 40.62-10.963 65.41-21.927 26.56-85.867 61.74-93.078 76.53-3.753 7.65-6.034 23.76-6.034 23.76-2.06 9.64 8.315 18.62 18.027 11.26 28.549-21.85 74.536-60.12 99.259-91.53 33.405-42.39 26.194-81.24.662-95.95-5.151-2.94-10.669-4.64-16.261-5.52h-.957zM1487.31 1243.29c10.44.59 30.83 5.6 41.42 9.86 17.81 7.14 32.3 16.12 37.97 27.16 7.58 14.71-2.36 30.09-16.78 30.09-12.29 0-27.44-9.12-42.67-20.24-8.91-6.54-23.55-22-29.36-30.16-9.05-12.66-12.58-18.03 9.42-16.63m-98.97 19.13c-7.58 5.66-14.2 12.58-19.06 21.04-24.13 42.09 2.95 106.18 94.92 143.92 68.28 28.04 175.05 49.82 239.65 60.49 21.85 3.6 28.7-18.03 16.11-30.91 0 0-19.2-22.51-32.37-31.12-25.39-16.63-156.5-19.72-215.52-42.6-55.25-21.34-101.31-54.45-80.56-90.06 20.23-34.81 53.12-43.93 53.49-44.08 9.19-3.02 19.35 1.25 23.62 10.01 6.4 13.1 15.3 28.55 27.29 42.67 34.88 41.5 83.74 38.12 100 14.94 0 0 .15-.29.22-.37 0-.14.15-.29.22-.37 11.77-25.82-9.34-70.56-62.76-79.83-18.77-3.31-37.01-3.24-51.73-2.13-9.71.73-18.54-5.89-20.31-15.38-.07-.44-7.5-39.88 11.92-68.21 18.54-27.08 72.55-13.61 118.83 23.33 50.7 40.39 117.88 145.02 146.13 163.2 8.9 5.66 42.75 13.9 42.75 13.9 20.75 5.15 30.17-15.67 18.62-29.5-41.43-49.45-112.36-129.87-173.21-176.74-78.73-60.63-148.11-51.36-172.25-9.13-3.97 6.92-6.4 14.43-7.8 22.01l-1.17 18.54-.67 13.17c-.88 10.15-3.01 27-7.5 35.46-6.48 12.07-22.74 22.37-30.17 26.57l-17.22 10.66-1.47.74z"/><path d="M1281.55 1129.03c5.81 0 17.07 2.51 22.81 4.64 9.71 3.75 17.58 8.61 20.38 15.01 3.83 8.46-2.13 17.88-10.15 18.25-6.92.37-15.09-4.56-23.26-10.82-4.78-3.6-12.5-12.29-15.52-16.99-4.71-7.29-6.55-10.38 5.74-10.16m-55.7 14.13c-4.34 3.6-8.24 7.8-11.19 12.95-14.71 25.6-1.32 62.76 48.86 82.55 37.23 14.72 96.24 24.58 131.93 29.07 12.07 1.54 16.55-11.41 9.86-18.76 0 0-10.08-12.81-17.15-17.52-13.68-9.12-86.75-7.35-118.97-19.2-30.24-11.11-54.97-29.36-42.46-50.99 12.29-21.19 30.9-27.52 31.13-27.59 5.22-2.06 10.74.14 12.87 5.22 3.24 7.58 7.73 16.48 13.98 24.5 18.32 23.55 45.62 20.24 55.41 6.04 0 0 0-.15.14-.22 0 0 .08-.15.15-.23 7.36-15.59-3.24-41.57-32.74-45.54-10.38-1.4-20.6-.81-28.84.22-5.45.66-10.16-3.02-10.89-8.54 0-.29-3.09-23.39 8.53-40.68 11.11-16.56 40.84-10.08 65.63 10.52 27.08 22.51 61.66 82.55 76.89 92.49 4.79 3.16 23.48 7.06 23.48 7.06 11.47 2.5 17.21-10.08 11.18-17.95-21.71-28.11-59.01-73.73-91.61-99.78-42.16-33.7-81.08-26.26-95.8-.59-2.42 4.2-3.97 8.69-5 13.25l-1.18 11.04-.73 7.8c-.81 6.03-2.43 16.04-5.15 21.19-3.98 7.35-13.32 13.9-17.59 16.55l-9.86 6.77-.88.52zM1263.04 1475.59c8.68 5.82 23.76 20.39 30.83 29.36 11.77 15.09 19.72 30.17 19.13 42.61-.81 16.48-17.22 24.79-29.65 17.51-10.67-6.18-19.13-21.78-26.71-39-4.42-10.15-9.27-30.83-10.23-40.84-1.4-15.52-1.77-21.92 16.55-9.64m-95.13-33.33c-9.35 1.11-18.62 3.76-27.01 8.54-42.01 24.13-50.91 93.15 9.49 172.1 44.81 58.64 126.12 131.19 176.52 172.91 17.07 14.13 33.92-1.1 29.51-18.61 0 0-5.23-29.14-12.29-43.19-13.54-27.08-125.23-95.88-164.75-145.32-37.01-46.36-60.11-98.09-24.28-118.39 35.03-19.87 68.06-11.26 68.51-11.19 9.49 2.06 16.11 10.82 15.37 20.53-1.1 14.57-1.17 32.38 1.99 50.55 9.27 53.42 53.12 75.12 78.95 63.28 0 0 .22-.15.37-.22.15 0 .29-.08.44-.15 23.18-16.41 27.45-65.71-14.05-100.66-14.57-12.28-30.39-21.41-43.64-27.88-8.75-4.27-13.02-14.42-9.78-23.55.15-.51 13.61-38.19 44.73-52.97 29.73-14.06 69.54 24.87 90.95 80.05 23.4 60.41 28.77 184.61 44 214.56 4.78 9.41 29.95 33.55 29.95 33.55 15.3 14.94 33.99 1.69 30.9-16.04-10.89-63.57-31.64-168.79-60.56-239.94-37.52-92.05-102.05-118.91-144.21-94.7-6.92 3.97-12.8 9.2-17.88 15.08l-10.38 15.38-7.21 11.04c-5.88 8.31-16.18 21.85-24.28 26.86-11.7 7.21-30.9 7.87-39.44 7.72l-20.23.52h-1.69z"/><path d="M1142.8 1273.24c4.93 3.02 13.46 10.74 17.36 15.53 6.55 8.09 10.82 16.33 10.08 23.25-.95 9.27-10.89 14.35-18.02 10.67-6.11-3.17-10.75-11.55-14.65-21.05-2.35-5.51-4.56-16.99-4.85-22.51-.37-8.61-.37-12.22 10.08-5.89m-55.26-15.89c-5.52.88-11.11 2.57-16.19 5.52-25.53 14.79-32.74 53.56.66 95.94 24.8 31.5 70.71 69.68 99.26 91.54 9.71 7.43 20.02-1.55 17.96-11.26 0 0-2.29-16.11-6.04-23.77-7.21-14.79-71.22-49.96-93.15-76.52-20.53-24.79-32.67-53.12-10.96-65.41 21.26-12.07 40.54-8.24 40.76-8.17 5.52.88 9.2 5.59 8.46 11.04-1.03 8.17-1.62 18.1-.22 28.25 3.97 29.58 29.21 40.4 44.81 33.04 0 0 .15 0 .22-.07.08 0 .15 0 .3-.15 14.12-9.86 18.1-37.53-5.45-55.85-8.24-6.4-17.36-11.11-25.02-14.34-5-2.14-7.28-7.66-5.07-12.88.07-.22 9.12-21.78 27.88-30.83 17.96-8.68 40.4 11.85 51.44 42.16 12.06 33.11 11.62 102.35 19.79 118.61 2.57 5.08 16.7 17.95 16.7 17.95 8.61 7.88 19.94 0 18.69-9.93-4.56-35.17-13.83-93.45-28.92-132.37-19.42-50.33-56.87-63.5-82.48-48.78-4.19 2.43-7.8 5.52-10.96 8.9l-6.62 8.9-4.57 6.41c-3.75 4.78-10.15 12.65-15.15 15.67-7.14 4.34-18.47 5.3-23.48 5.44l-11.92.89h-1.03zM936.652 323.844c-4.709-9.344-10.742-29.431-12.361-40.689-2.869-18.983-2.354-35.98 4.268-46.502 8.829-13.98 27.151-13.171 34.435-.662 6.254 10.595 6.033 28.328 4.047 47.09-1.178 11.037-7.137 31.419-11.258 40.543-6.401 14.2-9.271 19.94-19.131.22m66.438 75.787c8.69 3.679 18.03 5.96 27.74 5.813 48.57-.295 90.21-56.068 76.45-154.517-10.22-73.064-45.32-176.222-68.65-237.366-7.87-20.676-30.02-15.747-34.8 1.618 0 0-9.786 27.96-10.595 43.633-1.545 30.314 61.885 145.098 71.965 207.641 9.41 58.495 4.12 114.93-37.09 115.004-40.32 0-64.748-23.693-65.043-23.987-7.284-6.401-8.682-17.365-3.311-25.458 8.094-12.067 16.924-27.593 23.104-45.031 18.17-51.137-9.344-91.533-37.599-93.961h-.956c-28.255 2.944-56.141 43.78-37.231 94.55 6.622 17.88 15.893 33.626 24.281 45.766 5.518 7.947 4.267 18.984-3.091 25.311-.367.295-30.609 26.563-64.97 24.134-32.743-2.428-48.342-55.846-39.733-114.415 9.345-64.162 65.706-174.898 67.178-208.45.441-10.522-9.565-43.927-9.565-43.927-6.034-20.529-28.77-18.175-34.803-1.178-21.853 60.703-55.479 162.537-65.265 238.692-12.656 98.596 30.388 153.707 79.024 153.339 8.02 0 15.672-1.692 22.957-4.341l16.629-8.241 11.625-6.107c9.198-4.341 24.796-11.111 34.362-11.405 13.759-.515 30.756 8.314 38.114 12.656l17.883 9.491 1.47.883z"/><path d="M941.773 559.161c-2.869-5.003-6.475-15.893-7.505-22.074-1.692-10.301-1.398-19.498 2.649-25.238 5.371-7.505 16.482-7.137 20.897-.367 3.752 5.739 3.605 15.304 2.428 25.458-.736 5.96-4.341 17.07-6.843 22-3.9 7.726-5.666 10.816-11.626.147m40.322 40.984c5.224 1.987 10.963 3.238 16.85 3.164 29.505-.221 54.815-30.535 46.645-83.88-6.1-39.586-27.29-95.433-41.49-128.543-4.788-11.185-18.253-8.462-21.122.956 0 0-5.96 15.157-6.475 23.619-.957 16.408 37.447 78.583 43.487 112.429 5.66 31.713 2.35 62.322-22.664 62.395-24.502.148-39.292-12.729-39.512-12.876-4.341-3.532-5.224-9.418-1.987-13.759 4.93-6.622 10.301-15.01 14.127-24.429 11.111-27.665-5.518-49.592-22.736-50.843h-.588c-17.144 1.619-34.215 23.766-22.736 51.285 3.973 9.639 9.639 18.174 14.716 24.723 3.384 4.341 2.575 10.301-1.914 13.759-.22.147-18.615 14.421-39.512 13.171-19.866-1.251-29.284-30.242-23.986-61.954 5.739-34.73 40.174-94.844 41.057-113.092.22-5.665-5.739-23.766-5.739-23.766-3.606-11.11-17.439-9.786-21.191-.588-13.318 32.89-33.92 88.148-39.954 129.426-7.799 53.418 18.248 83.291 47.827 82.997 4.856 0 9.565-.956 13.98-2.428l10.08-4.488 7.137-3.311c5.592-2.355 15.158-6.034 20.897-6.255 8.314-.22 18.689 4.489 23.177 6.843l10.817 5.151.882.441zM404.529 641.496c-10.448-.662-30.829-5.592-41.425-9.86-17.806-7.137-32.301-16.113-37.967-27.15-7.578-14.716 2.355-30.094 16.776-30.094 12.288 0 27.445 9.05 42.676 20.234 8.903 6.549 23.546 22 29.358 30.168 9.051 12.729 12.583 18.1-9.418 16.702m98.964-19.131c7.579-5.665 14.201-12.508 19.058-20.97 24.134-42.087-3.017-106.175-94.918-143.994-68.281-28.034-175.045-49.814-239.648-60.483-21.853-3.605-28.696 18.027-16.113 30.904 0 0 19.204 22.589 32.374 31.124 25.385 16.629 156.504 19.793 215.514 42.602 55.258 21.412 101.319 54.449 80.643 90.061-20.308 34.803-53.198 44.001-53.566 44.148-9.197 3.017-19.351-1.251-23.619-10.007-6.327-13.097-15.304-28.549-27.224-42.676-34.876-41.499-83.733-38.114-99.994-14.937 0 0-.147.221-.221.368 0 .148-.147.221-.221.368-11.772 25.827 9.345 70.563 62.764 79.834 18.762 3.311 37.01 3.237 51.726 2.06 9.712-.736 18.542 5.886 20.308 15.378.073.515 7.505 39.88-11.92 68.282-18.542 27.077-72.549 13.538-118.831-23.399-50.696-40.395-117.874-144.951-146.128-163.198-8.903-5.666-42.75-13.907-42.75-13.907-20.75-5.224-30.167 15.672-18.615 29.432 41.425 49.445 112.355 129.867 173.205 176.737 78.73 60.703 148.042 51.359 172.249 9.124 3.974-6.916 6.402-14.421 7.8-22l1.177-18.542.662-13.097c.883-10.154 2.943-27.004 7.505-35.465 6.475-12.067 22.736-22.369 30.168-26.563l17.217-10.595 1.546-.809z"/><path d="M610.343 755.764c-5.813-.073-17.071-2.502-22.81-4.635-9.712-3.753-17.585-8.609-20.381-15.011-3.827-8.461 2.133-17.879 10.154-18.321 6.916-.294 15.083 4.636 23.251 10.816 4.782 3.679 12.508 12.362 15.525 16.997 4.709 7.285 6.475 10.375-5.739 10.154m55.699-14.127c4.341-3.605 8.241-7.799 11.258-12.95 14.642-25.606 1.324-62.763-48.93-82.556-37.232-14.716-96.169-24.576-131.928-29.064-12.067-1.545-16.482 11.479-9.86 18.763 0 0 10.081 12.803 17.144 17.512 13.686 9.124 86.75 7.358 118.978 19.13 30.168 11.111 54.964 29.432 42.382 51.064-12.288 21.191-30.83 27.519-31.124 27.593-5.224 2.06-10.743-.221-12.877-5.298-3.237-7.579-7.726-16.408-13.98-24.502-18.321-23.545-45.619-20.234-55.405-6.033 0 0 0 .147-.147.22 0 .074 0 .147-.147.221-7.285 15.599 3.237 41.499 32.742 45.472 10.375 1.398 20.603.883 28.844-.147 5.444-.736 10.153 2.943 10.889 8.535 0 .294 3.091 23.398-8.535 40.689-11.184 16.556-40.836 10.081-65.633-10.521-27.077-22.516-61.659-82.556-76.89-92.49-4.783-3.164-23.472-7.063-23.472-7.063-11.405-2.502-17.217 10.154-11.184 17.953 21.706 28.107 59.011 73.727 91.606 99.774 42.161 33.699 81.085 26.267 95.801.588 2.428-4.194 3.973-8.682 5.003-13.244l1.177-10.963.736-7.8c.736-6.033 2.428-16.04 5.151-21.191 3.973-7.357 13.317-13.906 17.585-16.555l9.86-6.769.883-.515zM628.843 409.205c-8.683-5.812-23.767-20.381-30.83-29.358-11.773-15.157-19.719-30.241-19.131-42.602.81-16.482 17.218-24.796 29.653-17.512 10.669 6.181 19.13 21.779 26.709 38.997 4.415 10.154 9.271 30.83 10.227 40.836 1.398 15.526 1.766 21.927-16.555 9.639m95.138 33.332c9.345-1.104 18.616-3.753 27.004-8.535 42.014-24.135 50.917-93.152-9.492-172.102-44.81-58.643-126.115-131.192-176.517-172.912-17.07-14.127-33.92 1.03-29.505 18.542 0 0 5.224 29.138 12.288 43.191 13.538 27.151 125.232 95.874 164.67 145.319 37.011 46.282 60.188 98.082 24.281 118.389-35.023 19.867-68.061 11.258-68.502 11.184-9.492-2.06-16.114-10.816-15.378-20.528 1.104-14.569 1.104-32.375-1.987-50.549-9.271-53.419-53.124-75.125-78.95-63.278 0 0-.295.147-.368.22-.147 0-.294.148-.442.148-23.177 16.408-27.445 65.706 14.054 100.656 14.569 12.214 30.462 21.412 43.633 27.813 8.755 4.268 13.023 14.422 9.786 23.545-.148.442-13.613 38.188-44.663 52.977-29.726 14.054-69.533-24.796-90.944-80.054-23.398-60.408-28.77-184.61-44.001-214.557-4.782-9.418-29.946-33.552-29.946-33.552-15.305-14.937-33.994-1.693-30.904 16.114 10.89 63.499 31.64 168.791 60.556 239.868 37.526 92.048 102.055 118.904 144.216 94.697 6.916-3.973 12.802-9.198 17.806-15.084l10.375-15.378 7.21-11.037c5.887-8.314 16.188-21.853 24.281-26.856 11.7-7.211 30.904-7.873 39.439-7.726l20.234-.515h1.766"/><path d="M748.989 611.619c-4.93-3.017-13.465-10.743-17.365-15.526-6.549-8.093-10.816-16.334-10.08-23.251.956-9.271 10.889-14.348 18.027-10.669 6.107 3.164 10.742 11.552 14.642 21.044 2.281 5.519 4.562 16.997 4.856 22.515.368 8.609.368 12.215-10.08 5.887m55.258 15.893c5.518-.883 11.11-2.575 16.187-5.519 25.532-14.789 32.743-53.565-.662-95.947-24.796-31.418-70.71-69.68-99.258-91.533-9.713-7.431-20.014 1.545-17.954 11.258 0 0 2.281 16.114 6.034 23.766 7.21 14.789 71.224 49.96 93.151 76.523 20.529 24.796 32.669 53.124 10.963 65.412-21.264 12.067-40.542 8.24-40.763 8.167-5.518-.883-9.197-5.592-8.461-11.037 1.03-8.167 1.619-18.101.221-28.254-3.974-29.579-29.211-40.396-44.81-33.111 0 0-.147 0-.221.147 0 0-.147 0-.221.147-14.127 9.86-18.1 37.526 5.445 55.847 8.241 6.401 17.365 11.11 25.017 14.348 5.003 2.134 7.284 7.652 5.077 12.876-.074.221-9.124 21.78-27.887 30.83-17.953 8.682-40.321-11.846-51.431-42.161-12.067-33.111-11.626-102.349-19.793-118.61-2.576-5.077-16.703-17.953-16.703-17.953-8.609-7.873-19.94 0-18.689 9.933 4.562 35.171 13.833 93.446 28.917 132.296 19.425 50.401 56.877 63.572 82.409 48.783 4.194-2.429 7.799-5.519 10.963-8.903l6.622-8.904 4.562-6.401c3.679-4.783 10.154-12.656 15.157-15.672 7.137-4.342 18.469-5.298 23.472-5.445l11.92-.883h1.03zM1476.13 628.244c5.82-8.094 20.46-23.545 29.36-30.094 15.23-11.184 30.39-20.234 42.68-20.234 14.42 0 24.43 15.378 16.77 30.094-5.73 11.036-20.16 20.013-38.04 27.15-10.59 4.194-30.97 9.198-41.42 9.86-22 1.398-18.54-3.973-9.49-16.703m-87.93-1.692 17.22 10.596c7.43 4.267 23.62 14.495 30.16 26.635 4.49 8.388 6.63 25.312 7.51 35.466l.66 13.17 1.18 18.542c1.32 7.579 3.83 15.084 7.8 22 24.21 42.161 93.59 51.506 172.25-9.197 60.85-46.796 131.85-127.292 173.2-176.738 11.56-13.832 2.14-34.655-18.61-29.505 0 0-33.92 8.167-42.75 13.907-28.26 18.174-95.43 122.73-146.06 163.199-46.35 36.936-100.29 50.475-118.9 23.324-19.43-28.328-12.07-67.766-11.92-68.208 1.77-9.492 10.59-16.187 20.31-15.451 14.71 1.103 33.03 1.177 51.8-2.061 53.42-9.271 74.61-54.007 62.76-79.833 0 0-.15-.295-.29-.442 0-.147-.15-.294-.22-.441-16.34-23.178-65.12-26.562-100.07 14.936-11.85 14.201-20.83 29.579-27.23 42.676-4.19 8.756-14.42 13.024-23.62 10.007-.36-.147-33.25-9.271-53.49-44.147-20.75-35.539 25.39-68.65 80.64-89.988 59.02-22.883 190.13-26.047 215.52-42.602 13.17-8.609 32.37-31.124 32.37-31.124 12.59-12.95 5.67-34.509-16.11-30.904-64.6 10.669-171.37 32.375-239.65 60.409-91.9 37.82-119.05 101.907-94.92 143.995 4.86 8.461 11.56 15.304 19.06 21.043l1.47.736z"/><path d="M1274.05 749.07c3.02-4.635 10.75-13.391 15.53-16.997 8.17-6.18 16.41-11.11 23.25-10.816 8.02.368 14.05 9.786 10.23 18.321-2.87 6.328-10.67 11.258-20.38 15.011-5.82 2.207-17 4.561-22.81 4.709-12.22.147-10.45-2.944-5.74-10.154m-49.08-3.459 9.86 6.77c4.27 2.722 13.61 9.271 17.59 16.555 2.72 5.077 4.34 15.157 5.15 21.191l.73 7.799 1.18 11.037c.96 4.489 2.57 9.05 4.93 13.244 14.71 25.606 53.56 33.111 95.8-.588 32.59-26.047 69.9-71.666 91.61-99.774 6.03-7.799.22-20.455-11.19-17.953 0 0-18.69 3.9-23.47 7.064-15.23 9.933-49.74 69.973-76.89 92.489-24.8 20.602-54.52 27.077-65.63 10.522-11.63-17.292-8.61-40.395-8.54-40.69.74-5.592 5.45-9.271 10.89-8.535 8.24 1.104 18.47 1.619 28.84.221 29.51-3.973 40.03-29.873 32.75-45.472 0 0-.08-.147-.15-.221 0 0-.07-.147-.15-.221-9.78-14.2-37.08-17.512-55.4 6.034-6.26 8.02-10.82 16.923-13.98 24.502-2.14 5.077-7.65 7.284-12.88 5.224-.22 0-18.84-6.402-31.05-27.592-12.58-21.706 12.21-39.954 42.38-51.064 32.3-11.847 105.37-10.081 118.98-19.131 7.14-4.709 17.14-17.512 17.14-17.512 6.7-7.358 2.21-20.234-9.86-18.763-35.68 4.489-94.62 14.348-131.85 29.064-50.18 19.793-63.57 56.951-48.93 82.556 2.94 5.151 6.92 9.418 11.26 12.95l.88.515zM1244.73 403.02c.96-9.933 5.74-30.609 10.16-40.836 7.58-17.292 16.04-32.817 26.71-38.997 12.51-7.285 28.84.956 29.72 17.511.59 12.362-7.36 27.446-19.13 42.603-6.99 8.977-22.15 23.545-30.75 29.358-18.33 12.288-18.03 5.886-16.56-9.639m-76.82 42.897 20.24.515c8.53 0 27.66.589 39.44 7.726 8.09 5.003 18.39 18.542 24.28 26.856l7.21 11.037 10.37 15.378c5.01 5.886 10.89 11.111 17.88 15.084 42.16 24.208 106.77-2.649 144.22-94.697 28.92-71.077 49.74-176.369 60.55-239.868 3.02-17.806-15.59-31.051-30.9-16.114 0 0-25.16 24.134-29.95 33.552-15.23 29.947-20.6 154.075-44 214.557-21.41 55.258-61.21 94.108-90.94 80.055-31.05-14.716-44.52-52.462-44.66-52.977-3.24-9.124 1.03-19.278 9.78-23.472 13.32-6.475 29.14-15.599 43.71-27.887 41.5-34.95 37.23-84.248 14.05-100.583 0 0-.29-.22-.44-.294-.07-.074-.22-.147-.37-.294-25.82-11.699-69.6 9.933-78.95 63.351-3.16 18.248-3.16 36.054-2.06 50.549.74 9.713-5.88 18.542-15.38 20.529-.44 0-33.4 8.756-68.5-11.11-35.83-20.308-12.65-72.108 24.28-118.39 39.52-49.445 151.21-118.168 164.75-145.319 6.99-14.053 12.29-43.191 12.29-43.191 4.34-17.512-12.44-32.669-29.51-18.542-50.4 41.72-131.71 114.269-176.52 172.912-60.33 78.95-51.5 147.968-9.41 172.102 8.46 4.856 17.65 7.431 27 8.535h1.69z"/><path d="M1131.07 609.191c.22-5.518 2.5-16.997 4.85-22.515 3.9-9.418 8.54-17.88 14.64-21.044 7.14-3.753 17.07 1.398 18.03 10.669.74 6.916-3.53 15.157-10.08 23.251-3.9 4.783-12.36 12.509-17.36 15.525-10.45 6.328-10.45 2.796-10.08-5.886m-44.15 21.779 11.92.883c5 .148 16.41 1.104 23.54 5.445 4.93 3.017 11.41 10.89 15.16 15.673l4.56 6.401 6.55 8.903c3.16 3.458 6.77 6.549 10.96 8.903 25.61 14.79 62.99 1.619 82.49-48.783 15.08-38.85 24.28-97.125 28.84-132.295 1.32-9.86-10.08-17.807-18.76-9.86 0 0-14.13 12.803-16.71 17.88-8.16 16.261-7.72 85.499-19.79 118.61-11.11 30.314-33.48 50.843-51.43 42.16-18.84-9.123-27.81-30.609-27.96-30.829-2.13-5.224 0-10.743 5.15-12.877 7.58-3.237 16.7-7.873 24.94-14.348 23.55-18.321 19.58-45.987 5.45-55.846 0 0-.15-.074-.22-.147 0 0-.15-.074-.22-.148-15.6-7.284-40.91 3.606-44.81 33.185-1.33 10.08-.81 20.013.22 28.181.73 5.444-2.95 10.153-8.46 11.036-.22 0-19.5 3.9-40.77-8.167-21.78-12.361-9.56-40.616 10.97-65.412 21.92-26.562 85.86-61.733 93.07-76.522 3.76-7.653 6.04-23.766 6.04-23.766 2.06-9.639-8.24-18.616-17.96-11.258-28.54 21.853-74.53 60.114-99.33 91.533-33.33 42.381-26.12 81.158-.59 95.947 5.15 2.943 10.67 4.635 16.19 5.518h1.03zM1170.26 944.569c3.31-1.545 10.3-3.532 14.2-4.047 6.63-.809 12.51-.588 16.12 1.766 4.78 3.164 4.34 9.492 0 11.92-3.76 2.06-9.86 1.913-16.34 1.104-3.82-.442-10.89-2.723-14.05-4.121-4.86-2.281-6.84-3.384 0-6.696m-18.4 2.797c.08 4.782-3.09 10.668-4.56 13.17a3.85 3.85 0 0 0-1.54-.809s-5.23-1.913-8.17-2.134c-5.67-.368-27.45 11.11-39.29 12.803-11.04 1.545-21.63.368-21.49-7.432.08-7.578 4.64-12.067 4.71-12.14 1.18-1.325 3.31-1.545 4.79-.515 2.28 1.545 5.15 3.237 8.38 4.488 9.57 3.605 17.22-1.472 17.81-6.769v-.147c-.44-5.372-8.02-10.743-17.66-7.358-3.38 1.177-6.4 2.869-8.68 4.414-1.55 1.031-3.61.736-4.71-.662 0 0-4.93-5.886-4.34-12.288.51-6.107 10.67-8.829 21.7-7.063 12 1.986 32.67 12.95 38.93 13.318 1.98.073 8.24-1.619 8.24-1.619.95-.221 1.69-.736 2.13-1.251 1.47 3.238 3.75 8.682 3.75 11.994m-63.94-1.325c1.77-.809 5.6-1.913 7.73-2.207 3.61-.442 6.77-.295 8.68.956 2.58 1.693 2.43 5.151 0 6.475-1.98 1.177-5.37 1.03-8.83.589-2.06-.221-5.88-1.472-7.58-2.281-2.64-1.251-3.68-1.84 0-3.605m107.72-54.964c-34.14-5.004-53.49 9.565-53.71 26.488 0 4.341 1.25 8.388 3.17 12.141-11.48-4.268-29.58-10.596-43.34-12.582-18.55-2.723-28.99 5.15-29.14 14.348 0 3.017 1.18 5.886 2.72 8.314 0 0 2.65 5.224 2.72 7.873 0 3.385-2.94 7.8-2.94 7.8-1.62 2.354-2.79 5.077-2.87 8.02 0 9.124 10.23 17.144 28.84 14.936 12.88-1.545 30.76-7.137 42.46-11.257-1.32 3.016-2.21 6.254-2.21 9.639-.14 16.849 18.91 31.64 53.13 27.44 25.46-3.09 61.44-14.564 82.77-22.29 7.21-2.649 5.67-10.375-.36-12.067 0 0-9.64-3.605-15.09-3.973-10.52-.662-50.69 20.602-72.47 23.692-20.31 2.944-39.88.663-39.66-13.612.22-13.98 8.68-22.368 8.75-22.441 2.28-2.502 6.04-2.944 8.83-.957 4.12 2.87 9.49 6.034 15.45 8.241 17.59 6.622 31.79-2.649 32.82-12.435v-.368c-.81-9.786-14.79-19.719-32.6-13.538-6.25 2.207-11.77 5.297-15.96 8.167-2.8 1.839-6.62 1.324-8.76-1.251-.07-.147-8.97-10.816-7.94-22.662 1.03-11.405 19.64-16.409 39.95-13.098 22.22 3.679 60.26 23.914 71.89 24.576 3.68.221 15.3-3.017 15.3-3.017 7.21-1.913 6.48-9.859.59-12.067-20.9-7.946-56.07-20.308-82.41-24.134M719.097 951.261c-3.164 1.471-10.154 3.678-13.98 4.12-6.475.809-12.656.957-16.335-1.104-4.341-2.501-4.782-8.756 0-11.993 3.606-2.355 9.492-2.649 16.114-1.766 3.9.515 10.964 2.502 14.201 4.047 6.917 3.311 4.93 4.341 0 6.622m22.074-15.82c.441.515 1.177 1.031 2.134 1.251 0 0 6.328 1.766 8.314 1.693 6.254-.368 26.93-11.405 38.924-13.392 10.963-1.766 21.043.957 21.632 7.137.589 6.475-4.194 12.214-4.268 12.288-1.177 1.398-3.237 1.692-4.709.662-2.281-1.471-5.297-3.237-8.682-4.414-9.639-3.385-17.218 1.986-17.659 7.357v.148c.515 5.297 8.241 10.374 17.806 6.769 3.238-1.177 6.107-2.943 8.388-4.488 1.472-1.031 3.606-.81 4.783.515 0 0 4.635 4.562 4.709 12.14.074 7.726-10.522 8.903-21.485 7.358-11.773-1.692-33.626-13.244-39.292-12.803-2.943.221-8.167 2.134-8.167 2.134a3.9 3.9 0 0 0-1.545.809c-1.545-2.501-4.709-8.388-4.636-13.17 0-3.311 2.281-8.756 3.753-11.994m60.188 14.275c-1.692.736-5.519 1.986-7.579 2.281-3.532.368-6.843.515-8.829-.589-2.355-1.324-2.576-4.783 0-6.475 1.986-1.251 5.15-1.398 8.756-.956 2.133.294 5.886 1.398 7.652 2.207 3.752 1.766 2.649 2.355 0 3.605M611.23 915.28c-5.813 2.281-6.549 10.154.662 12.067 0 0 11.626 3.238 15.305 3.017 11.552-.662 49.666-20.97 71.887-24.649 20.234-3.311 38.923 1.766 39.953 13.097 1.104 11.92-7.799 22.589-7.946 22.736a6.69 6.69 0 0 1-8.756 1.251c-4.268-2.87-9.786-5.96-15.967-8.167-17.733-6.255-31.713 3.679-32.522 13.538v.294c1.03 9.787 15.231 19.131 32.816 12.435 5.96-2.281 11.332-5.444 15.452-8.314a6.83 6.83 0 0 1 8.829.956c.074.148 8.462 8.462 8.756 22.442.221 14.348-19.351 16.482-39.659 13.612-21.779-3.164-61.954-24.428-72.475-23.692-5.445.368-15.084 3.9-15.084 3.9-6.034 1.765-7.579 9.491-.295 12.067 21.338 7.725 57.319 19.2 82.777 22.37 34.288 4.12 53.272-10.671 53.124-27.521 0-3.385-.883-6.622-2.207-9.639 11.699 4.12 29.579 9.713 42.455 11.258 18.616 2.207 28.917-5.813 28.843-14.937 0-3.017-1.25-5.739-2.869-8.094 0 0-3.017-4.341-2.943-7.799 0-2.649 2.649-7.873 2.649-7.873 1.545-2.428 2.722-5.224 2.722-8.241 0-9.124-10.596-17.07-29.137-14.348-13.76 1.987-31.934 8.315-43.339 12.582 1.913-3.752 3.238-7.799 3.164-12.14-.147-16.85-19.572-31.419-53.713-26.415-26.341 3.899-61.438 16.187-82.409 24.134M940.656 722.875c-1.472-3.164-3.679-10.154-4.121-13.98-.809-6.475-.956-12.656 1.104-16.334 2.502-4.342 8.756-4.783 11.994 0 2.354 3.605 2.648 9.491 1.765 16.113-.515 3.9-2.501 10.964-4.046 14.201-3.311 6.917-4.342 4.93-6.623 0m15.82 22.074c-.515.441-1.03 1.177-1.251 2.134 0 0-1.766 6.328-1.692 8.241.368 6.327 11.405 26.93 13.318 38.997 1.839 10.963-.883 21.043-7.064 21.632-6.475.589-12.214-4.194-12.288-4.268-1.398-1.177-1.692-3.237-.662-4.709 1.545-2.281 3.238-5.297 4.415-8.682 3.385-9.639-1.987-17.218-7.358-17.659h-.147c-5.298.515-10.375 8.241-6.77 17.806 1.178 3.238 2.944 6.107 4.489 8.388 1.03 1.472.809 3.606-.515 4.783 0 0-4.562 4.562-12.141 4.709-7.726.073-8.903-10.522-7.358-21.559 1.693-11.773 13.171-33.552 12.803-39.218-.221-2.943-2.134-8.167-2.134-8.167a3.9 3.9 0 0 0-.809-1.545c2.575-1.545 8.388-4.709 13.171-4.636 3.311 0 8.756 2.281 11.993 3.753m-14.274 60.188c-.81-1.693-1.987-5.519-2.281-7.579-.368-3.532-.515-6.843.588-8.829 1.325-2.355 4.783-2.576 6.475 0 1.251 1.986 1.398 5.15.957 8.756-.294 2.06-1.398 5.886-2.208 7.652-1.765 3.826-2.354 2.722-3.605 0m34.435-190.129c-2.281-5.813-10.154-6.549-12.067.662 0 0-3.237 11.626-3.017 15.231.663 11.626 20.971 49.74 24.65 71.961 3.311 20.234-1.766 38.923-13.098 39.953-11.846 1.104-22.588-7.799-22.662-7.946a6.69 6.69 0 0 1-1.251-8.756c2.87-4.268 5.96-9.786 8.167-15.967 6.255-17.733-3.679-31.713-13.538-32.522h-.294c-9.787 1.03-19.058 15.231-12.435 32.816 2.281 6.034 5.444 11.331 8.314 15.452a6.834 6.834 0 0 1-.956 8.829c-.074.074-8.462 8.462-22.442 8.756-14.348.221-16.482-19.351-13.612-39.659 3.09-21.779 24.354-61.954 23.619-72.475-.368-5.445-3.9-15.084-3.9-15.084-1.766-6.034-9.492-7.579-12.067-.295-7.726 21.338-19.204 57.319-22.368 82.777-4.121 34.288 10.669 53.345 27.445 53.198 3.458 0 6.622-.883 9.639-2.281-4.121 11.699-9.713 29.653-11.258 42.455-2.207 18.542 5.813 28.917 14.937 28.843 3.016 0 5.739-1.25 8.093-2.869 0 0 4.415-2.943 7.8-2.87 2.649 0 7.873 2.649 7.873 2.649 2.428 1.545 5.298 2.722 8.314 2.722 9.124 0 17.071-10.595 14.348-29.063-1.986-13.833-8.314-32.007-12.582-43.412 3.753 1.913 7.8 3.237 12.141 3.164 16.849-.147 31.421-19.572 26.411-53.713-3.822-26.341-16.184-61.439-24.13-82.409M1137.28 831.991c1.99-2.869 6.99-8.314 10.08-10.595 5.15-3.974 10.45-7.211 14.72-7.285 5 0 8.53 5.225 5.96 10.375-1.92 3.9-6.92 7.064-13.03 9.639-3.68 1.545-10.67 3.385-14.27 3.679-7.65.589-6.48-1.325-3.39-5.739m-11.18 24.796c-.66-.221-1.47-.294-2.5 0 0 0-6.33 1.619-7.95 2.722-5.3 3.459-17.59 23.325-27 31.051-8.61 7.063-18.77 9.712-22.3 4.709-3.75-5.298-2.5-12.656-2.43-12.803.3-1.766 1.99-3.09 3.83-2.943 2.8.147 6.18.074 9.71-.515 10.01-1.913 13.84-10.375 11.55-15.157v-.148c-3.16-4.267-12.28-4.782-18.76 3.091-2.21 2.722-3.82 5.592-5 8.093-.81 1.693-2.72 2.502-4.42 1.987-.07 0-6.32-1.692-10.22-8.167-3.98-6.622 4.56-12.95 14.93-17.144 11.04-4.415 35.69-5.371 40.4-8.609 2.5-1.619 6.03-5.96 6.03-5.96.44-.441.74-.956.96-1.471 2.57 1.398 8.24 4.856 10.59 9.05 1.62 2.943 2.43 8.756 2.8 12.288m-59.23 17.806c1.03-1.545 3.82-4.489 5.44-5.739 2.87-2.134 5.67-3.9 7.95-3.9 2.72 0 4.63 2.869 3.24 5.592-1.03 2.134-3.76 3.826-7.07 5.224-1.98.809-5.81 1.839-7.72 1.987-4.12.294-3.53-.663-1.84-3.164m181.81-65.486c3.9-4.856.59-11.993-6.62-10.154 0 0-11.7 3.017-14.79 5.004-9.71 6.475-32.45 43.043-49.81 57.391-15.9 13.024-34.51 18.027-41.13 8.683-6.92-9.786-4.57-23.472-4.49-23.619.59-3.311 3.6-5.592 6.99-5.445 5.15.294 11.4.221 17.95-.957 18.47-3.458 25.61-19.13 21.41-28.033v-.147l-.07-.148c-5.81-7.946-22.74-8.829-34.66 5.74-4.04 4.929-7.06 10.374-9.19 14.936-1.4 3.091-4.93 4.562-8.1 3.606-.14 0-11.62-3.017-18.83-15.084-7.36-12.214 8.46-23.913 27.52-31.639 20.3-8.168 65.78-10.007 74.53-15.893 4.49-3.091 11.04-10.964 11.04-10.964 4.27-4.562 1.84-11.993-5.74-10.669-22.37 3.974-59.23 12.067-82.85 22.221-31.71 13.612-40.76 35.981-32.16 50.402 1.77 2.943 4.12 5.298 6.77 7.211-12.21 2.354-30.46 6.475-42.38 11.552-17.14 7.358-22.07 19.425-17.44 27.298 1.55 2.575 3.9 4.341 6.48 5.592 0 0 4.78 2.354 6.47 5.297 1.33 2.355 1.62 8.168 1.62 8.168-.07 2.869.3 5.886 1.84 8.461 4.64 7.873 17.73 9.418 32.38-2.207 10.89-8.682 23.47-23.178 31.19-32.669.23 4.194 1.18 8.388 3.39 12.14 8.61 14.495 32.74 17.365 59.75-4.046 20.82-16.556 45.1-44.81 59.15-62.175M1053.72 751.499c.3-3.458 1.91-10.669 3.46-14.201 2.58-6.033 5.44-11.405 9.12-13.612 4.27-2.575 10.01.294 10.38 6.033.22 4.268-2.5 9.566-6.55 14.863-2.35 3.164-7.58 8.241-10.6 10.302-6.32 4.341-6.25 2.133-5.81-3.312m2.72 27.004c-.73.074-1.47.515-2.13 1.177 0 0-4.71 4.562-5.59 6.328-2.87 5.666-3.68 28.99-7.95 40.395-3.9 10.448-11.33 17.806-16.92 15.231-5.89-2.722-8.46-9.786-8.46-9.859-.59-1.693.14-3.606 1.76-4.415 2.5-1.251 5.45-3.017 8.17-5.298 7.73-6.622 6.92-15.893 2.5-18.91-4.85-2.207-13.1 1.987-14.79 11.994-.51 3.458-.51 6.769-.29 9.491.15 1.84-1.03 3.532-2.87 3.9-.08 0-6.26 1.692-12.878-1.987-6.769-3.752-2.501-13.538 4.338-22.294 7.36-9.345 28.26-22.515 30.69-27.592 1.32-2.649 2.28-8.168 2.28-8.168q.21-.882 0-1.766c2.94 0 9.64.074 13.68 2.576 2.87 1.692 6.48 6.401 8.54 9.271m-42.46 45.03c.15-1.839 1.03-5.739 1.84-7.652 1.4-3.311 2.95-6.181 4.93-7.432 2.36-1.324 5.45.148 5.59 3.238.15 2.354-1.32 5.15-3.53 8.02-1.32 1.692-4.12 4.488-5.74 5.592-3.46 2.355-3.38 1.104-3.16-1.766m124.94-147.453c.95-6.18-5.52-10.742-10.82-5.518 0 0-8.61 8.461-10.3 11.699-5.22 10.448-6.7 53.566-14.64 74.536-7.21 19.278-20.97 32.89-31.27 28.107-10.82-5.003-15.6-18.1-15.68-18.248-1.1-3.164.3-6.695 3.31-8.167 4.57-2.281 10.08-5.518 15.09-9.786 14.27-12.214 12.65-29.358 4.56-34.95 0 0-.07 0-.15-.074h-.14c-8.98-3.973-24.14 3.679-27.15 22.221-1.03 6.328-.96 12.509-.52 17.586.29 3.384-1.99 6.475-5.3 7.21-.14 0-11.55 3.164-23.76-3.678-12.51-6.917-4.57-24.944 8.09-41.131 13.54-17.291 52.09-41.499 56.73-50.917 2.43-4.856 4.12-15.01 4.12-15.01 1.47-6.107-4.41-11.332-10.3-6.328-17.37 14.642-45.4 40.027-60.78 60.556-20.673 27.592-17.44 51.505-2.79 59.746 3.01 1.619 6.18 2.575 9.49 2.87-9.49 8.093-23.25 20.823-31.052 31.197-11.184 14.937-9.418 27.887-1.472 32.375 2.575 1.472 5.592 1.84 8.384 1.619 0 0 5.38-.368 8.25 1.398 2.28 1.324 5.51 6.328 5.51 6.328 1.33 2.501 3.24 4.929 5.82 6.475 7.94 4.488 20.08-.663 26.93-18.027 5.15-12.95 8.83-31.86 10.81-43.927 2.28 3.532 5.15 6.696 8.98 8.829 14.72 8.241 37.01-1.25 49.74-33.331 9.86-24.723 16.7-61.365 20.31-83.439M748.353 837.804c-3.605-.294-10.669-2.134-14.348-3.679-6.107-2.575-11.11-5.739-13.023-9.639-2.576-5.077.956-10.375 5.96-10.375 4.267 0 9.491 3.311 14.716 7.285 3.09 2.281 8.093 7.726 10.08 10.595 3.09 4.415 4.194 6.328-3.385 5.739m17.291 6.77c2.355-4.121 8.021-7.653 10.596-9.051.147.515.515 1.03.883 1.472 0 0 3.605 4.268 6.033 5.96 4.709 3.164 29.358 4.12 40.395 8.609 10.301 4.12 18.91 10.522 14.937 17.144-3.9 6.475-10.08 8.093-10.228 8.093-1.765.515-3.679-.294-4.414-1.913-1.178-2.501-2.796-5.445-5.004-8.093-6.475-7.873-15.672-7.432-18.836-3.091v.147c-2.281 4.857 1.545 13.318 11.552 15.231 3.532.663 6.99.663 9.712.515 1.84-.073 3.459 1.104 3.753 2.944 0 0 1.324 7.505-2.428 12.802-3.606 5.004-13.686 2.355-22.295-4.709-9.418-7.726-21.706-27.592-27.003-31.05-1.693-1.104-8.021-2.723-8.021-2.723-.956-.22-1.765-.147-2.501 0 .368-3.531 1.177-9.344 2.796-12.214m54.669 33.258c-1.986-.147-5.739-1.104-7.726-1.987-3.311-1.398-6.033-3.164-7.063-5.224-1.398-2.796.515-5.665 3.237-5.592 2.281 0 5.077 1.766 7.947 3.9 1.619 1.251 4.341 4.194 5.445 5.739 1.692 2.428 2.354 3.458-1.84 3.164m-120.743-6.475c27.003 21.412 51.064 18.542 59.746 4.047 2.207-3.753 3.164-7.873 3.385-12.067 7.725 9.492 20.308 23.987 31.197 32.669 14.643 11.552 27.666 10.08 32.375 2.208 1.545-2.576 1.987-5.666 1.84-8.536 0 0 .368-5.886 1.618-8.167 1.693-2.943 6.475-5.298 6.475-5.298 2.502-1.251 4.93-3.016 6.475-5.592 4.636-7.873-.22-19.94-17.438-27.298-11.92-5.077-30.241-9.271-42.455-11.552 2.649-1.913 5.077-4.267 6.769-7.284 8.609-14.495-.441-36.79-32.154-50.402-23.545-10.08-60.482-18.174-82.85-22.221-7.579-1.324-10.081 6.107-5.74 10.669 0 0 6.549 7.873 11.111 10.964 8.682 5.886 54.154 7.652 74.536 15.893 19.057 7.652 34.876 19.351 27.518 31.639-7.21 11.993-18.689 15.01-18.836 15.01a6.646 6.646 0 0 1-8.094-3.605c-2.207-4.562-5.15-9.934-9.271-14.937-11.919-14.569-28.843-13.686-34.582-5.666v.148s-.147 0-.147.147c-4.194 8.903 2.87 24.502 21.412 28.033 6.475 1.178 12.802 1.251 17.953.957 3.385-.221 6.401 2.134 6.99 5.445 0 .147 2.428 13.906-4.488 23.619-6.549 9.344-25.238 4.341-41.131-8.683-17.365-14.274-40.175-50.916-49.813-57.318-3.091-1.986-14.79-5.077-14.79-5.077-7.211-1.839-10.595 5.298-6.622 10.154 14.127 17.365 38.335 45.693 59.231 62.248M829.417 754.803c-3.017-2.06-8.168-7.137-10.596-10.301-4.047-5.225-6.769-10.522-6.475-14.79.295-5.739 6.034-8.609 10.301-6.033 3.679 2.207 6.622 7.578 9.124 13.612 1.472 3.532 3.164 10.742 3.458 14.201.442 5.371.515 7.578-5.812 3.311m11.552 14.495c4.12-2.502 10.742-2.649 13.685-2.575v1.692s.957 5.518 2.208 8.167c2.501 5.077 23.398 18.248 30.756 27.592 6.916 8.756 11.11 18.542 4.341 22.369-6.622 3.679-12.803 1.986-12.876 1.986-1.766-.368-3.017-2.06-2.87-3.9.221-2.722.221-6.107-.294-9.491-1.619-10.081-9.86-14.201-14.716-11.994-4.415 3.091-5.298 12.288 2.502 18.91 2.722 2.355 5.665 4.047 8.167 5.298 1.619.809 2.428 2.722 1.766 4.415 0 .073-2.649 7.21-8.462 9.933-5.592 2.575-13.023-4.783-16.923-15.231-4.341-11.405-5.151-34.803-7.947-40.395-.883-1.766-5.518-6.401-5.518-6.401-.736-.663-1.472-1.104-2.207-1.178 2.06-2.869 5.665-7.505 8.461-9.197m30.83 56.067c-1.619-1.103-4.415-3.899-5.739-5.592-2.208-2.869-3.679-5.739-3.532-8.02.147-3.09 3.237-4.635 5.592-3.237 1.987 1.177 3.605 4.12 4.93 7.431.809 1.913 1.692 5.813 1.839 7.652.221 2.944.295 4.121-3.164 1.84m-101.466-65.78c12.73 32.081 35.024 41.572 49.74 33.258 3.753-2.134 6.622-5.298 8.903-8.756 1.987 11.993 5.666 30.903 10.743 43.853 6.916 17.365 19.057 22.515 26.93 18.027 2.649-1.471 4.488-3.9 5.886-6.475 0 0 3.238-4.856 5.445-6.254 2.943-1.766 8.241-1.325 8.241-1.325 2.869.148 5.886-.147 8.462-1.618 7.946-4.489 9.712-17.439-1.472-32.375-7.8-10.375-21.559-23.104-30.977-31.124 3.237-.368 6.475-1.251 9.418-2.943 14.716-8.241 17.954-32.155-2.722-59.747-15.378-20.455-43.412-45.84-60.777-60.556-5.886-4.929-11.772.221-10.301 6.402 0 0 1.766 10.08 4.121 15.01 4.561 9.492 43.117 33.699 56.729 50.917 12.656 16.187 20.529 34.214 8.02 41.131-12.214 6.843-23.619 3.679-23.766 3.679-3.311-.736-5.592-3.826-5.297-7.211.441-5.077.441-11.258-.516-17.586-3.09-18.542-18.247-26.194-27.224-22.221h-.147l-.147.148c-8.094 5.592-9.713 22.736 4.562 34.95 5.003 4.267 10.522 7.505 15.083 9.786 3.017 1.471 4.489 5.077 3.385 8.167 0 .147-4.856 13.244-15.672 18.248-10.301 4.783-23.987-8.83-31.272-28.034-7.872-21.044-9.418-64.161-14.642-74.536-1.619-3.311-10.301-11.699-10.301-11.699-5.224-5.224-11.699-.662-10.742 5.445 3.605 22.074 10.448 58.643 20.307 83.439M947.384 1170.75c1.545 3.24 3.532 10.3 4.047 14.2.809 6.63.588 12.51-1.766 16.12-3.164 4.78-9.492 4.41-11.92 0-2.06-3.76-1.913-9.86-1.104-16.34.442-3.82 2.649-10.89 4.121-13.98 2.281-4.93 3.311-6.91 6.695 0m-2.796-18.39c-4.782 0-10.669-3.09-13.17-4.64.368-.37.588-.88.809-1.54 0 0 1.913-5.23 2.134-8.17.368-5.67-11.111-27.44-12.803-39.29-1.545-11.04-.368-21.63 7.358-21.49 7.579.08 12.067 4.64 12.141 4.71 1.398 1.25 1.618 3.31.515 4.79-1.546 2.28-3.311 5.15-4.489 8.38-3.605 9.57 1.472 17.22 6.77 17.74h.073c5.298-.45 10.743-8.02 7.358-17.66-1.177-3.39-2.87-6.4-4.415-8.69a3.623 3.623 0 0 1 .663-4.78s5.886-4.85 12.287-4.27c6.107.52 8.83 10.67 7.064 21.64-1.987 11.99-12.95 32.67-13.318 38.92-.147 1.99 1.619 8.31 1.619 8.31.221.96.736 1.62 1.251 2.14-3.238 1.47-8.683 3.68-11.994 3.75m1.325-63.94c.883 1.77 1.913 5.59 2.207 7.65.442 3.61.294 6.77-.956 8.68-1.693 2.65-5.151 2.43-6.475 0-1.178-2.06-1.031-5.37-.589-8.82.221-2.06 1.472-5.89 2.281-7.58 1.251-2.65 1.766-3.76 3.605 0m55.038 107.72c5-34.14-9.566-53.5-26.489-53.72-4.341 0-8.462 1.25-12.141 3.17 4.268-11.48 10.596-29.65 12.582-43.41 2.723-18.55-5.15-28.99-14.347-29.14-3.017 0-5.887 1.18-8.315 2.72 0 0-5.224 2.65-7.873 2.72-3.385 0-7.799-2.94-7.799-2.94-2.355-1.54-5.077-2.72-8.094-2.8-9.124 0-17.144 10.23-14.937 28.77 1.546 12.88 7.138 30.76 11.258 42.46-3.017-1.33-6.254-2.21-9.639-2.21-16.85-.15-31.639 18.91-27.519 53.13 3.091 25.45 14.643 61.43 22.369 82.77 2.648 7.21 10.301 5.67 12.067-.29 0 0 3.605-9.64 3.899-15.09.736-10.52-20.528-50.69-23.619-72.47-2.943-20.38-.662-39.95 13.613-39.66 13.98.22 22.294 8.61 22.441 8.76a6.834 6.834 0 0 1 .957 8.83c-2.87 4.12-6.034 9.49-8.315 15.45-6.622 17.66 2.649 31.78 12.435 32.81h.294c9.787-.81 19.72-14.86 13.539-32.59-2.207-6.26-5.298-11.77-8.167-16.04-1.913-2.8-1.325-6.62 1.251-8.76.073-.07 10.816-9.05 22.662-7.95 11.405 1.04 16.408 19.65 13.097 39.96-3.679 22.22-23.913 60.26-24.575 71.89-.221 3.67 3.016 15.3 3.016 15.3 1.913 7.14 9.86 6.48 12.067.59 7.947-20.9 20.235-56 24.132-82.41M1140.6 1055.89c3.61.3 10.67 2.14 14.35 3.68 6.18 2.58 11.11 5.74 13.02 9.64 2.58 5.08-.95 10.45-6.03 10.37-4.19 0-9.49-3.31-14.72-7.28-3.09-2.35-8.02-7.73-10.08-10.59-3.09-4.42-4.19-6.33 3.39-5.74m-17.29-6.77c-2.36 4.12-8.02 7.65-10.6 9.05-.14-.52-.51-1.03-.88-1.47 0 0-3.61-4.27-6.03-5.96-4.71-3.17-29.36-4.13-40.4-8.61-10.3-4.12-18.91-10.53-14.94-17.15 3.9-6.47 10.16-8.09 10.23-8.09 1.77-.52 3.68.29 4.42 1.91 1.17 2.5 2.79 5.45 5 8.1 6.4 7.87 15.6 7.43 18.76 3.09 2.28-4.86-1.54-13.32-11.55-15.23-3.53-.67-6.99-.67-9.71-.52-1.84.07-3.46-1.1-3.75-2.94 0 0-1.33-7.51 2.42-12.806 3.61-5.003 13.69-2.354 22.3 4.706 9.42 7.73 21.78 27.6 27 31.05 1.69 1.11 8.02 2.73 8.02 2.73.96.22 1.77.14 2.5 0-.36 3.53-1.17 9.34-2.79 12.21m-54.67-33.26c1.99.15 5.74 1.11 7.72 1.99 3.32 1.4 6.04 3.16 7.07 5.22 1.4 2.8-.52 5.67-3.24 5.6-2.35 0-5.15-1.77-7.95-3.9-1.61-1.26-4.34-4.2-5.44-5.74-1.69-2.43-2.28-3.46 1.84-3.17m120.74 6.48c-27-21.41-51.06-18.54-59.74-4.05-2.21 3.75-3.17 7.87-3.39 12.07-7.72-9.49-20.31-23.99-31.2-32.672-14.64-11.552-27.66-10.08-32.37-2.207-1.55 2.575-1.99 5.669-1.84 8.539 0 0-.37 5.88-1.62 8.16-1.62 2.95-6.47 5.3-6.47 5.3-2.51 1.25-4.93 3.02-6.48 5.59-4.63 7.88.22 19.94 17.44 27.3 11.92 5.08 30.24 9.27 42.45 11.55-2.64 1.92-5.07 4.27-6.77 7.29-8.6 14.42.45 36.79 32.16 50.4 23.54 10.08 60.48 18.17 82.85 22.22 7.58 1.4 10.08-6.11 5.74-10.67 0 0-6.55-7.87-11.04-10.96-8.75-5.89-54.23-7.65-74.61-15.9-19.05-7.65-34.87-19.35-27.52-31.63 7.21-12 18.69-15.01 18.84-15.01 3.24-1.03 6.77.51 8.09 3.6 2.21 4.56 5.23 9.93 9.27 14.94 11.92 14.57 28.85 13.61 34.66 5.66v-.14l.07-.15c4.2-8.9-2.87-24.5-21.41-28.04-6.47-1.17-12.8-1.25-17.95-.95-3.39.22-6.4-2.14-6.99-5.45 0-.14-2.43-13.9 4.49-23.62 6.62-9.27 25.24-4.26 41.13 8.76 17.36 14.27 40.1 50.92 49.81 57.32 3.09 1.99 14.79 5.08 14.79 5.08 7.21 1.84 10.6-5.3 6.62-10.16-14.05-17.36-38.26-45.69-59.15-62.25M1059.56 1138.81c3.02 2.06 8.17 7.14 10.6 10.3 4.05 5.3 6.77 10.6 6.55 14.87-.37 5.74-6.04 8.53-10.38 6.03-3.68-2.21-6.62-7.58-9.12-13.61-1.47-3.61-3.16-10.74-3.46-14.2-.44-5.37-.51-7.58 5.81-3.31m-11.55-14.5c-4.12 2.5-10.74 2.65-13.76 2.58q.12-.78 0-1.77s-.95-5.44-2.2-8.09c-2.51-5.08-23.4-18.25-30.76-27.59-6.917-8.76-11.185-18.55-4.342-22.3 6.622-3.68 12.802-1.99 12.872-1.99 1.77.37 3.02 2.06 2.87 3.9-.22 2.73-.29 6.11.3 9.5 1.62 10.08 9.86 14.2 14.71 11.99h.08c4.41-3.09 5.3-12.29-2.5-18.91-2.73-2.36-5.67-4.05-8.1-5.3a3.573 3.573 0 0 1-1.84-4.41c0-.08 2.65-7.21 8.46-9.94 5.6-2.57 13.03 4.79 16.93 15.23 4.34 11.41 5.15 34.81 7.94 40.4.89 1.77 5.6 6.4 5.6 6.4.73.66 1.47 1.1 2.13 1.18-2.06 2.87-5.67 7.5-8.46 9.2m-30.83-56.07c1.62 1.1 4.41 3.9 5.74 5.59 2.21 2.87 3.68 5.74 3.53 8.02-.15 3.09-3.24 4.64-5.59 3.24-1.99-1.18-3.61-4.12-4.93-7.43-.81-1.92-1.69-5.82-1.84-7.66-.22-2.94-.3-4.12 3.16-1.84m101.47 65.78c-12.73-32.08-35.03-41.57-49.74-33.25-3.83 2.13-6.7 5.29-8.98 8.75-1.98-11.99-5.66-30.9-10.74-43.85-6.92-17.37-19.06-22.52-27-18.03-2.65 1.47-4.49 3.9-5.82 6.48 0 0-3.23 4.85-5.52 6.25-2.86 1.69-8.24 1.33-8.24 1.33-2.866-.15-5.882.14-8.458 1.61-7.946 4.49-9.712 17.44 1.472 32.38 7.796 10.37 21.556 23.1 30.976 31.2-3.31.29-6.55 1.17-9.49 2.87-14.64 8.24-17.954 32.15 2.8 59.74 15.37 20.46 43.33 45.84 60.7 60.49 5.88 4.92 11.77-.23 10.3-6.33 0 0-1.77-10.08-4.12-15.01-4.56-9.49-43.12-33.7-56.73-50.92-12.66-16.19-20.6-34.21-8.02-41.13 12.21-6.84 23.62-3.68 23.77-3.68 3.31.74 5.59 3.83 5.29 7.21-.44 5.08-.44 11.26.52 17.59 3.09 18.61 18.25 26.26 27.15 22.22h.15s.07 0 .14-.15c8.1-5.59 9.72-22.74-4.56-34.95-5-4.27-10.45-7.5-15.08-9.79-3.02-1.54-4.49-5.07-3.31-8.16 0-.15 4.78-13.25 15.67-18.25 10.37-4.78 24.06 8.83 31.27 28.03 7.95 21.05 9.42 64.16 14.64 74.61 1.62 3.24 10.3 11.7 10.3 11.7 5.3 5.23 11.78.66 10.82-5.44-3.61-22.08-10.45-58.65-20.31-83.44M751.626 1061.56c-1.987 2.87-6.99 8.31-10.08 10.67-5.151 3.9-10.449 7.14-14.716 7.21-5.004 0-8.535-5.22-5.96-10.38 1.913-3.9 6.916-7.06 13.024-9.56 3.678-1.55 10.668-3.39 14.274-3.68 7.652-.59 6.475 1.32 3.385 5.74m11.184-24.8c.662.22 1.471.3 2.501 0 0 0 6.328-1.62 7.947-2.72 5.298-3.46 17.585-23.32 27.003-31.05 8.609-7.063 18.763-9.786 22.295-4.709 3.752 5.299 2.428 12.729 2.428 12.799-.294 1.77-1.987 3.09-3.826 2.95-2.796-.15-6.181-.15-9.712.51-10.007 1.92-13.907 10.38-11.552 15.23v.15c3.163 4.27 12.287 4.78 18.762-3.09 2.208-2.72 3.826-5.59 5.004-8.09.809-1.7 2.648-2.51 4.414-1.99.074 0 6.328 1.62 10.228 8.09 3.973 6.7-4.562 13.03-14.937 17.15-11.037 4.49-35.686 5.44-40.395 8.61-2.501 1.61-6.033 5.88-6.033 5.88-.368.44-.736.96-.883 1.47-2.575-1.39-8.241-4.85-10.596-9.05-1.545-2.94-2.354-8.75-2.722-12.28m59.231-17.88c-1.03 1.54-3.826 4.48-5.445 5.74-2.796 2.13-5.665 3.9-7.946 3.9-2.723 0-4.636-2.87-3.238-5.67 1.031-2.06 3.753-3.83 7.064-5.15 1.987-.81 5.813-1.84 7.726-1.99 4.12-.29 3.532.66 1.839 3.09m-181.814 65.56c-3.973 4.86-.589 12 6.622 10.16 0 0 11.699-3.02 14.789-5.01 9.713-6.47 32.449-43.11 49.814-57.39 15.893-13.02 34.508-18.03 41.13-8.68 6.917 9.78 4.489 23.47 4.489 23.62-.589 3.31-3.606 5.66-6.99 5.44-5.077-.29-11.479-.22-17.954.96-18.468 3.46-25.605 19.13-21.411 27.96v.15l.073.14c5.813 7.95 22.736 8.83 34.656-5.74 4.047-4.93 7.064-10.37 9.198-14.93 1.398-3.02 4.929-4.56 8.093-3.61.148 0 11.626 3.02 18.837 15.09 7.358 12.21-8.462 23.91-27.519 31.63-20.381 8.17-65.853 10.01-74.536 15.9-4.488 3.01-11.11 10.96-11.11 10.96-4.268 4.49-1.766 11.99 5.813 10.67 22.368-3.97 59.231-12.07 82.776-22.22 31.713-13.61 40.837-35.98 32.228-50.4-1.766-2.95-4.12-5.3-6.769-7.29 12.214-2.28 30.462-6.47 42.381-11.55 17.144-7.36 22.074-19.5 17.439-27.3-1.546-2.57-3.9-4.34-6.475-5.59 0 0-4.783-2.35-6.475-5.3-1.325-2.35-1.619-8.16-1.619-8.16.147-2.87-.221-5.89-1.84-8.539-4.635-7.799-17.732-9.418-32.374 2.207-10.89 8.682-23.472 23.182-31.198 32.672-.221-4.2-1.177-8.39-3.385-12.14-8.608-14.5-32.742-17.37-59.746 4.04-20.823 16.56-45.104 44.89-59.158 62.25M835.3 1142.13c-.294 3.46-1.913 10.67-3.458 14.2-2.576 6.03-5.445 11.4-9.124 13.61-4.268 2.58-10.007-.29-10.301-6.03-.221-4.27 2.428-9.57 6.548-14.87 2.355-3.16 7.579-8.24 10.596-10.3 6.328-4.34 6.254-2.13 5.813 3.31m-2.723-27c.736-.07 1.472-.52 2.134-1.18 0 0 4.709-4.56 5.592-6.33 2.87-5.66 3.679-28.99 7.946-40.39 3.9-10.45 11.332-17.81 16.997-15.23 5.887 2.72 8.388 9.78 8.462 9.86.662 1.69-.147 3.6-1.766 4.41-2.502 1.25-5.445 2.95-8.167 5.3-7.726 6.62-6.917 15.89-2.502 18.91h.074c4.856 2.13 13.097-1.99 14.789-11.99.515-3.46.515-6.77.294-9.49-.147-1.84 1.03-3.54 2.87-3.9.073 0 6.254-1.7 12.876 1.98 6.77 3.75 2.502 13.54-4.341 22.3-7.358 9.34-28.254 22.51-30.682 27.59-1.325 2.65-2.208 8.17-2.208 8.17a3.57 3.57 0 0 0 0 1.76c-2.943 0-9.639-.14-13.686-2.57-2.869-1.7-6.475-6.4-8.535-9.27m42.455-45.03c-.147 1.84-1.03 5.73-1.839 7.65-1.398 3.31-3.017 6.18-4.93 7.43-2.354 1.32-5.445-.15-5.592-3.31-.147-2.28 1.325-5.15 3.532-8.02 1.251-1.69 4.12-4.49 5.739-5.59 3.458-2.36 3.385-1.11 3.164 1.76m-124.938 147.45c-.956 6.19 5.519 10.75 10.817 5.52 0 0 8.608-8.46 10.301-11.7 5.224-10.44 6.695-53.56 14.642-74.61 7.284-19.2 20.97-32.81 31.271-28.03 10.816 5 15.599 18.1 15.673 18.25 1.177 3.16-.295 6.69-3.312 8.17-4.561 2.28-10.08 5.51-15.083 9.78-14.275 12.22-12.656 29.36-4.562 34.95 0 0 .073 0 .147.08h.147c8.977 3.97 24.134-3.68 27.151-22.23 1.03-6.32.956-12.5.515-17.58a6.796 6.796 0 0 1 5.298-7.21c.147 0 11.552-3.17 23.766 3.68 12.508 6.99 4.635 24.94-8.02 41.2-13.613 17.22-52.095 41.5-56.73 50.92-2.428 4.86-4.12 15.01-4.12 15.01-1.472 6.11 4.414 11.33 10.301 6.33 17.364-14.65 45.398-40.03 60.776-60.56 20.676-27.59 17.438-51.5 2.796-59.75-3.017-1.69-6.18-2.57-9.492-2.86 9.419-8.1 23.178-20.83 30.977-31.2 11.184-14.94 9.418-27.89 1.472-32.38-2.575-1.47-5.592-1.84-8.388-1.62 0 0-5.298.37-8.241-1.39-2.281-1.4-5.518-6.33-5.518-6.33-1.325-2.5-3.238-4.93-5.813-6.48-7.947-4.49-20.087.67-26.93 18.03-5.151 12.95-8.83 31.86-10.816 43.93-2.281-3.53-5.151-6.7-8.904-8.83-14.715-8.32-37.083 1.25-49.739 33.33-9.86 24.72-16.703 61.29-20.308 83.44M638.539 852.368c3.9-13.759 0-23.178 0-23.178s-3.606-7.063-7.358 4.93c-3.09 9.713-11.037 18.174-20.087 20.823-10.596 3.091-.736 8.462-.736 8.462 8.535 6.328 8.094 9.933 11.92 11.257 3.752 1.325 13.244-12.067 16.187-22.368M726.955 712.648c10.301-9.933 11.625-20.087 11.625-20.087s.368-7.873-8.756.589c-7.578 6.99-18.615 10.301-27.813 8.093-10.742-2.575-4.856 6.99-4.856 6.99 4.268 9.713 2.06 12.656 4.709 15.673s17.512-3.9 25.164-11.332M1015.13 1258.38c-13.91 3.53-20.088 11.63-20.088 11.63s-4.267 6.62 7.948 3.82c10.01-2.28 21.26.37 28.11 6.92 7.94 7.58 7.65-3.61 7.65-3.61 1.18-10.59 4.56-11.99 3.82-15.96-.73-3.9-17.14-5.38-27.44-2.8M1258.92 876.578c3.54 13.833 11.56 20.087 11.56 20.087s6.62 4.268 3.82-7.947c-2.28-9.933.37-21.264 6.92-28.107 7.58-7.946-3.61-7.652-3.61-7.652-10.59-1.177-11.99-4.562-15.96-3.826-3.98.736-5.38 17.144-2.8 27.445M1250.47 1041.24c-3.9 13.76 0 23.18 0 23.18s3.61 7.07 7.36-4.93c3.09-9.71 11.04-18.25 20.09-20.82 10.59-3.09.73-8.46.73-8.46-8.53-6.33-8.09-9.94-11.92-11.26-3.75-1.32-13.24 12.07-16.18 22.37M1162.08 1180.97c-10.3 9.94-11.63 20.09-11.63 20.09s-.36 7.87 8.83-.66c7.51-6.92 18.62-10.3 27.82-8.02 10.67 2.57 4.85-6.99 4.85-6.99-4.27-9.72-2.06-12.66-4.71-15.68-2.65-3.01-17.51 3.9-25.16 11.34M630.587 1020.86c-2.281-14.12-9.713-21.04-9.713-21.04s-6.254-4.857-4.561 7.58c1.324 10.08-2.281 21.12-9.419 27.37-8.241 7.28 2.944 7.95 2.944 7.95 10.448 2.13 11.552 5.59 15.525 5.22 3.973-.44 6.99-16.55 5.298-27.08M854.678 1255.29c-12.876-6.18-22.883-3.97-22.883-3.97s-7.578 2.35 3.679 8.02c9.05 4.64 16.114 13.91 17.144 23.32 1.251 10.97 8.241 2.14 8.241 2.14 7.652-7.36 11.184-6.33 13.097-9.86s-9.712-15.16-19.278-19.72M710.884 1166.26c-8.977-11.11-18.983-13.39-18.983-13.39s-7.8-1.1-.074 8.83c6.181 8.1 8.535 19.43 5.519 28.48-3.532 10.45 6.548 5.44 6.548 5.44 10.08-3.38 12.803-.88 16.04-3.24 3.311-2.35-2.281-17.8-8.976-26.12M870.443 634.57c14.053-2.649 20.749-10.375 20.749-10.375s4.709-6.327-7.652-4.341c-10.081 1.619-21.191-1.692-27.666-8.609-7.505-8.02-7.873 3.091-7.873 3.091-1.766 10.522-5.224 11.699-4.709 15.746.515 3.973 16.776 6.401 27.224 4.415M1036.7 640.761c13.47 4.783 23.11 1.545 23.11 1.545s7.28-3.09-4.42-7.578c-9.49-3.679-17.44-12.141-19.5-21.412-2.42-10.742-8.38-1.251-8.38-1.251-6.92 8.094-10.53 7.432-12.07 11.184-1.55 3.679 11.26 14.054 21.26 17.586M1177.12 724.93c8.53 11.478 18.39 14.127 18.39 14.127s7.73 1.472.52-8.829c-5.89-8.315-7.8-19.793-4.34-28.623 3.97-10.301-6.26-5.739-6.26-5.739-10.22 2.943-12.8.368-16.18 2.575-3.39 2.208 1.54 17.88 7.87 26.489"/><path d="M1151.06 947.144c0-114.268-92.64-206.905-206.906-206.905-114.269 0-206.905 92.637-206.905 206.905 0 114.266 92.636 206.906 206.905 206.906 114.266 0 206.906-92.64 206.906-206.906"/></g></svg>