<svg xmlns="http://www.w3.org/2000/svg" width="374" height="373"><g fill="#010101"><path d="M64 189.4c-1.7.8-5.7 2-7.9 2.3-3.7.5-7.2.6-9.3-.6-2.5-1.4-2.7-5 0-6.8 2-1.4 5.4-1.5 9.2-1 2.2.2 6.2 1.4 8 2.2 4 2 2.9 2.5 0 3.8m15 8.8-1.9-3.5c-.8-1.4-2.7-4.8-2.6-7.5 0-1.9 1.3-5 2.1-6.8l1.2-2.3 1.6-3.3q.8-2.2.7-4.6c0-9.6-11.1-17.9-30.6-15-15 2.2-35 9.2-46.9 13.7-3.3 1.3-3.7 5.8.4 6.9 0 0 6.6 1.8 8.7 1.7 6.6-.4 28.3-12 41-14 11.5-2 22.1 1 22.7 7.4.6 6.8-4.5 12.9-4.5 13a4 4 0 0 1-5 .6 42 42 0 0 0-9.1-4.6c-10.2-3.6-18.1 2.1-18.6 7.7v.2c.6 5.6 8.7 10.9 18.7 7a38 38 0 0 0 8.8-4.6 4 4 0 0 1 5 .5c.1 0 5 4.8 5 12.8.2 8.2-11 9.4-22.5 7.8-12.4-1.8-35.4-14-41.3-13.5-3.1.2-8.6 2.2-8.6 2.2-3.4 1-4.4 5.4-.2 6.9a251 251 0 0 0 47.1 12.7c19.5 2.4 30.4-6 30.3-15.6q0-3-1.2-5.5z"/><path d="M110.6 188a22 22 0 0 1-4.3 1.5c-2 .2-4 .3-5-.4-1.4-.9-1.6-3 0-4.1q1.7-1.3 4.9-.7c1.2.2 3.4.9 4.4 1.4 2.1 1.2 1.5 1.5 0 2.3m8.1 5.4-1-2.1c-.5-1-1.5-3-1.5-4.6 0-1.1.8-3 1.2-4.1l.6-1.5.9-2q.4-1.3.4-2.7c0-5.9-6-11-16.6-9.2a122 122 0 0 0-25.4 8.4c-1.8.7-2 3.5.2 4.1 0 0 3.6 1.2 4.7 1.1 3.6-.3 15.4-7.3 22.2-8.5 6.3-1.2 12 .6 12.3 4.5.4 4.1-2.4 7.8-2.4 7.9a2 2 0 0 1-2.7.4q-2-1.6-5-2.8c-5.4-2.2-9.8 1.2-10 4.6v.2c.3 3.3 4.7 6.6 10.1 4.3q2.9-1.3 4.8-3a2 2 0 0 1 2.7.4s2.6 3 2.7 7.8c0 5-6 5.7-12.2 4.7-6.8-1-19.2-8.4-22.4-8.2-1.7.1-4.7 1.4-4.7 1.4-1.8.6-2.3 3.3 0 4.2a125 125 0 0 0 25.5 7.7c10.6 1.4 16.5-3.7 16.4-9.5a9 9 0 0 0-.7-3.3zm191.6-8.5c1.8-1 5.8-2 8-2.3 3.8-.5 7.2-.4 9.2 1 2.8 1.8 2.5 5.4 0 6.8-2 1.2-5.6 1-9.3.6-2.2-.2-6.2-1.5-8-2.3-2.7-1.4-3.9-2 0-3.8M295 197.7q-1.1 2.6-1.2 5.5c-.1 9.6 10.7 18 30.3 15.7 14.4-1.8 35-8.4 47.1-12.8 4.1-1.5 3.2-5.8-.2-6.9 0 0-5.5-2-8.6-2.2-6-.4-28.9 11.7-41.3 13.5-11.6 1.6-22.7.4-22.6-7.8.1-8 5-12.7 5-12.7a4 4 0 0 1 5-.6q3.6 2.6 8.9 4.7c10 3.8 18-1.5 18.7-7v-.3c-.5-5.6-8.5-11.2-18.6-7.7q-5.4 2-9.1 4.7a4 4 0 0 1-5-.7s-5.1-6.2-4.5-13c.6-6.4 11.2-9.3 22.7-7.4 12.7 2 34.4 13.6 41 14 2 .1 8.7-1.7 8.7-1.7 4.1-1.1 3.7-5.6.4-6.9a256 256 0 0 0-47-13.7c-19.4-2.9-30.4 5.4-30.6 15q0 2.4.8 4.6l1.6 3.3 1.2 2.3c.8 1.9 2 5 2 6.8.1 2.8-1.7 6-2.5 7.5l-2 3.5z"/><path d="M263.8 185c1-.5 3.1-1.2 4.3-1.4q3.2-.5 5 .7c1.5 1 1.4 3.3 0 4.1q-1.8 1-5 .4a17 17 0 0 1-4.4-1.4c-1.5-.8-2-1.2 0-2.3m-8.2 7.8q-.6 1.5-.7 3.3c0 5.8 5.9 11 16.4 9.5 7.9-1 19-5 25.6-7.7 2.2-1 1.7-3.6-.1-4.2 0 0-3-1.3-4.7-1.4-3.2-.2-15.6 7.1-22.3 8.2-6.3 1-12.4.2-12.3-4.7 0-4.8 2.7-7.7 2.7-7.8a2 2 0 0 1 2.7-.3q2 1.5 4.8 2.9c5.4 2.3 9.8-1 10.1-4.3v-.2c-.2-3.4-4.5-6.8-10-4.6q-3 1.2-5 2.8c-.8.6-2 .5-2.6-.4 0 0-2.8-3.8-2.5-7.9.3-4 6-5.7 12.3-4.5 6.9 1.2 18.6 8.2 22.2 8.5 1.2 0 4.8-1 4.8-1 2.2-.8 2-3.5.1-4.3-6.4-2.7-17.3-7-25.4-8.3-10.5-1.7-16.5 3.3-16.6 9.1q0 1.5.4 2.8l.9 2 .6 1.4c.5 1.1 1.2 3 1.2 4.2 0 1.6-1 3.7-1.4 4.5l-1.1 2.2zm-66.2 116.4a35 35 0 0 1 2.2 8c.4 3.7.4 7.2-.8 9.3-1.4 2.5-5 2.7-6.8-.1-1.3-2-1.4-5.4-.8-9.2.3-2.2 1.5-6.2 2.4-8 2-4 2.5-2.8 3.8 0m9-14.8-3.5 1.8c-1.4.9-4.8 2.6-7.5 2.5-1.9 0-5-1.4-6.8-2.2l-2.3-1.2-3.3-1.7q-2.2-.8-4.5-.8c-9.6-.1-18.1 10.8-15.6 30.3 1.9 15 8.5 35.2 12.9 47.2 1.2 3.3 5.7 3.8 6.8-.3 0 0 2-6.6 2-8.7-.4-6.6-11.5-28.5-13.4-41.2-1.6-11.6 1.4-22.1 8-22.6 6.7-.5 12.7 4.7 12.7 4.8a4 4 0 0 1 .7 5 42 42 0 0 0-4.9 9c-3.7 10 1.8 18.1 7.4 18.7h.2c5.6-.5 11-8.5 7.4-18.6-1.2-3.4-3-6.5-4.5-8.9a4 4 0 0 1 .6-5s5-4.8 12.9-4.8c8.1 0 9.2 11.2 7.3 22.8-2 12.3-14.5 35-14.2 41 .1 3.1 2 8.7 2 8.7 1 3.4 5.4 4.4 7 .3 4.6-12 11.5-32.5 13.5-47 2.8-19.4-5.5-30.4-15-30.5q-3 0-5.6 1.2z"/><path d="M188.8 262.8c.5 1 1.2 3.1 1.4 4.3.2 2 .3 4-.5 5-.8 1.4-3 1.5-4.1 0q-1.2-1.8-.5-5c.1-1.2.9-3.3 1.4-4.4 1.2-2 1.6-1.4 2.3 0m5.5-8-2.1 1c-.9.5-3 1.4-4.6 1.4-1.1 0-3-.8-4.1-1.2l-1.4-.7-2-.9a9 9 0 0 0-2.8-.5c-5.8 0-11 5.9-9.5 16.5 1.2 8.1 5.3 19 8 25.5.7 1.9 3.4 2.1 4.1 0 0 0 1.2-3.7 1.2-4.8-.2-3.6-7-15.5-8.2-22.3-1-6.3.8-12 4.8-12.3 4.1-.2 7.7 2.6 7.8 2.6.9.7 1 1.9.4 2.7q-1.6 2-3 5c-2.2 5.4 1.2 9.8 4.5 10h.2c3.3-.2 6.6-4.5 4.5-10q-1.3-2.9-2.8-4.8a2 2 0 0 1 .4-2.7s3-2.6 7.8-2.6c5 0 5.6 6 4.4 12.3-1.1 6.7-8.7 19-8.5 22.3 0 1.7 1.2 4.6 1.2 4.6.6 2 3.3 2.4 4.2.2 2.8-6.5 7-17.6 8.2-25.4 1.6-10.5-3.4-16.5-9.2-16.6a9 9 0 0 0-3.3.7zm-112.1-5c-1.2 1.7-4 4.7-5.8 6-3 2.2-6 4-8.5 4-2.8 0-4.8-3-3.3-6 1.2-2.1 4-3.9 7.5-5.3 2.1-.8 6.2-1.8 8.2-2 4.4-.2 3.7.8 2 3.4m17.3.3-3.4-2.1c-1.5-.8-4.7-2.9-6-5.3-.9-1.6-1.3-5-1.5-7v-2.6l-.3-3.6q-.4-2.3-1.6-4.4c-4.8-8.3-18.5-10.2-34 1.8-12 9.3-26 25.2-34.3 35-2.2 2.7-.4 6.8 3.7 5.8 0 0 6.7-1.6 8.5-2.8 5.6-3.5 18.8-24.2 28.9-32.2 9.1-7.3 19.8-10 23.5-4.6 3.8 5.6 2.3 13.4 2.3 13.5a4 4 0 0 1-4 3q-4.5-.4-10.2.4c-10.6 1.9-14.8 10.7-12.4 15.8v.2c3.3 4.5 13 5.2 19.8-3a41 41 0 0 0 5.4-8.4 4 4 0 0 1 4.7-2s6.6 1.8 10.6 8.7c4 7-5 13.6-16 17.8-11.6 4.5-37.6 5.2-42.6 8.4a43 43 0 0 0-6.4 6.2c-2.5 2.5-1.1 6.8 3.2 6 12.8-2 33.9-6.3 47.4-11.9 18.2-7.4 23.5-20 18.7-28.4q-1.5-2.5-3.7-4.2z"/><path d="M122.1 225.9c-.6 1-2.1 2.6-3 3.3-1.6 1.3-3.3 2.3-4.6 2.2-1.6-.1-2.8-2-2-3.6q.9-2 4-3c1.1-.4 3.4-.9 4.5-1 2.4 0 2 .6 1.1 2m9.7.8-2-1.4c-.8-.5-2.6-1.8-3.4-3.3-.5-1-.8-3-1-4.1l-.2-1.6-.2-2.2a9 9 0 0 0-1-2.6c-2.9-5-10.5-6.5-18.9.1A128 128 0 0 0 87 231.3c-1.2 1.5 0 4 2.2 3.5 0 0 3.7-.8 4.6-1.4 3-2 9.9-13.8 15.2-18.3 5-4 10.8-5.3 13-2a13 13 0 0 1 1.7 8q-.3 1.8-2.1 1.7-2.6-.4-5.7 0c-5.9.7-8 5.9-6.5 9 2 2.8 7.4 3.5 11-1.2q1.8-2.4 2.7-4.8a2 2 0 0 1 2.6-1s3.7 1.2 6.1 5.4c2.5 4.3-2.4 8-8.3 10.1-6.4 2.3-20.9 2-23.6 3.8-1.4 1-3.4 3.4-3.4 3.4-1.3 1.5-.4 4 2 3.8 7-1 18.7-2.9 26-5.8 10-3.9 12.6-11.3 9.8-16.3q-1-1.5-2.3-2.6zm-3.9 67.7c-.1 2-1.1 6-2 8-1.5 3.5-3.2 6.6-5.3 7.8-2.4 1.4-5.7-.2-5.8-3.5q0-3.7 3.8-8.4a35 35 0 0 1 6-5.8c3.7-2.4 3.6-1.2 3.3 2m15.2-8.6h-4a17 17 0 0 1-7.8-1.6c-1.6-1-3.6-3.7-4.8-5.3l-1.4-2.2-2-3q-1.5-1.8-3.6-3c-8.3-4.8-21.1.5-28.5 18.7-5.7 14-9.8 34.9-12 47.4-.6 3.5 3.1 6.2 6.1 3.2 0 0 5-4.8 6-6.6 3-6 4-30.5 8.7-42.4 4.2-11 12-18.7 18-15.9 6 3 8.7 10.4 8.8 10.5.6 1.8-.2 3.8-2 4.6a42 42 0 0 0-8.6 5.6c-8.2 6.9-7.4 16.6-2.8 19.8h.1v.2c5.2 2.3 13.8-2 15.7-12.6q.8-5.5.4-10a4 4 0 0 1 3-4c.1 0 6.6-1.8 13.6 2.2s2.5 14.2-4.8 23.4c-7.8 9.8-30 23.3-32.6 28.7a41 41 0 0 0-2.4 8.5c-.9 3.5 2.4 6.5 5.8 3.7 10-8.2 26-22.6 34.9-34.2 12-15.6 10.2-29.2 1.9-34a14 14 0 0 0-5.4-1.7z"/><path d="M150.4 253.5c0 1.1-.5 3.4-1 4.5q-1 3-2.9 4.2c-1.4.7-3.3-.3-3.5-2.2q-.1-2 2-4.6a17 17 0 0 1 3.4-3c2-1.3 2-.6 2 1.2m8.7-4.3-2.3-.2c-1 0-3.3-.2-4.7-1.1-1-.6-2.2-2.2-3-3.1l-.9-1.3-1.3-1.7a9 9 0 0 0-2.1-1.8c-5.1-3-12.5-.3-16.4 9.7-3 7.7-4.8 19.2-5.7 26.1-.2 2 2 3.5 3.7 2 0 0 2.8-2.6 3.3-3.6 1.7-3.2 1.6-16.9 4-23.4 2.2-6 6.6-10 10.1-8.3 3.7 1.8 5.5 6 5.6 6 .4 1 0 2.2-1 2.6a22 22 0 0 0-5 2.8c-4.7 3.7-3.9 9.1-1 11v.1c3.1 1.5 8-.7 8.9-6.5q.2-3.1 0-5.6a2 2 0 0 1 1.6-2.2s3.9-.7 8 1.6c4.4 2.5 2 8-2.1 13-4.3 5.2-17 12.2-18.4 15.1-.8 1.5-1.2 4.7-1.2 4.7-.4 1.9 1.6 3.7 3.6 2.2 5.6-4.3 14.7-11.9 19.6-18 6.6-8.5 5.2-16.1.1-19q-1.4-1-3.2-1.1zm135-3.5c2 .1 6 1 8.1 2 3.5 1.3 6.4 3.1 7.5 5.3 1.5 3-.4 6-3.3 6-2.4 0-5.4-1.8-8.4-4a35 35 0 0 1-5.8-6c-1.8-2.5-2.5-3.6 1.8-3.3m-19.5 3.8a14 14 0 0 0-3.8 4.1c-4.8 8.4.6 21 18.8 28.5a253 253 0 0 0 47.3 12c4.4.7 5.7-3.6 3.2-6.2 0 0-3.8-4.4-6.4-6.1-5-3.3-31-4-42.6-8.4-11-4.2-20-10.8-16-17.8s10.6-8.7 10.7-8.7a4 4 0 0 1 4.6 2c1.3 2.5 3 5.6 5.4 8.4 7 8.2 16.6 7.5 19.8 3v-.2c2.4-5.1-1.8-14-12.3-15.8q-5.7-.9-10.2-.4c-2 .1-3.7-1.2-4-3 0-.2-1.5-8 2.3-13.6 3.7-5.3 14.3-2.6 23.5 4.7 10 8 23.3 28.6 28.9 32.2 1.7 1.1 8.4 2.8 8.4 2.8 4.1 1 6-3.1 3.7-5.9a258 258 0 0 0-34.2-34.9c-15.6-12-29.3-10.2-34-1.8q-1.3 2-1.6 4.3l-.3 3.7-.1 2.6a23 23 0 0 1-1.5 7 16 16 0 0 1-6 5.3l-3.3 2z"/><path d="M253.4 223.2c1.1 0 3.3.5 4.5 1q3 1 4 2.9c.7 1.7-.4 3.5-2 3.6-1.4 0-3-1-4.6-2.1-1-.8-2.5-2.5-3-3.4-1-1.4-1.4-2 1-2m-11 2.8q-1.3 1-2.2 2.5c-2.9 5.1-.2 12.4 9.7 16.4 7.3 2.9 19 4.8 26 5.7 2.5.3 3.3-2.3 2-3.7 0 0-2-2.5-3.4-3.5-2.7-1.8-17.1-1.4-23.5-3.8-6-2.2-10.9-5.8-8.4-10 2.4-4.2 6.1-5.5 6.2-5.5a2 2 0 0 1 2.5 1q1 2.4 2.8 4.9c3.6 4.6 9 4 11 1.2v-.1c1.4-3.1-.7-8.2-6.5-9q-3-.4-5.7 0a2 2 0 0 1-2.1-1.7s-.7-4.6 1.6-8c2.2-3.3 8.1-2 13 2 5.4 4.5 12.2 16.4 15.2 18.4a27 27 0 0 0 4.7 1.4c2.2.4 3.4-2 2.2-3.6a129 129 0 0 0-18.1-19.7c-8.4-6.7-16-5.2-19-.1q-.7 1.2-1 2.6l-.2 2.2-.1 1.5c-.2 1.2-.5 3.2-1 4.2-.8 1.4-2.7 2.7-3.5 3.3l-2 1.3zm7.4 65.7c1.7 1.2 4.7 4 6 5.8 2.4 3 4 6 3.9 8.4-.2 3.3-3.4 5-5.9 3.5-2.1-1.2-3.8-4.3-5.3-7.7-.8-2-1.8-6.1-2-8-.3-3.2-.3-4.4 3.3-2m-18.8-6.6a14 14 0 0 0-5.4 1.7c-8.3 4.8-10 18.4 2 34 8.8 11.6 24.8 26 34.8 34.2 3.4 2.8 6.7-.2 5.8-3.7 0 0-1-5.7-2.4-8.5-2.7-5.4-24.8-19-32.6-28.7-7.3-9.2-11.8-19.4-4.8-23.4s13.5-2.3 13.6-2.2c1.9.4 3.2 2 3 4a41 41 0 0 0 .4 10c1.8 10.6 10.5 14.9 15.6 12.5h.2c4.6-3.3 5.4-13-2.8-20q-4.5-3.6-8.6-5.5a4 4 0 0 1-2-4.6c0-.1 2.7-7.6 8.9-10.5 5.9-2.8 13.7 5 18 15.8 4.6 12 5.7 36.5 8.7 42.4 1 1.9 5.9 6.7 5.9 6.7 3 3 6.7.3 6-3.2a259 259 0 0 0-11.9-47.4c-7.4-18.2-20.2-23.5-28.5-18.8q-2 1.3-3.5 3l-2 3-1.5 2.3a23 23 0 0 1-4.8 5.3 16 16 0 0 1-7.8 1.5h-4.3z"/><path d="M226 251.7a18 18 0 0 1 3.4 3q1.9 2.6 2 4.7c-.2 1.8-2.2 2.8-3.6 2-1.2-.5-2.1-2.2-3-4-.4-1.2-.8-3.4-.9-4.5 0-1.7 0-2.4 2-1.2m-10.9-3.1q-1.6.2-3.2 1c-5 3-6.5 10.6.1 19a125 125 0 0 0 19.6 18.1c2 1.5 4-.3 3.6-2.2 0 0-.5-3.2-1.2-4.7-1.4-3-14-9.9-18.4-15.1-4-5-6.5-10.5-2.2-13 4.2-2.3 8-1.6 8-1.6a2 2 0 0 1 1.8 2.2q-.5 2.5 0 5.6c.7 5.8 5.7 8 8.8 6.5 2.9-2 3.6-7.4-1-11a22 22 0 0 0-5-2.9q-1.5-.8-1-2.5s1.8-4.4 5.6-6.1c3.5-1.8 8 2.3 10.1 8.3 2.4 6.5 2.3 20.2 4 23.4.4 1 3.2 3.6 3.2 3.6 1.7 1.5 4 0 3.7-2-.9-7-2.7-18.4-5.7-26.1-3.8-10-11.2-12.6-16.3-9.7q-1.2.7-2.2 1.8l-1.3 1.7-.9 1.3c-.7 1-2 2.5-3 3.1-1.4.9-3.6 1-4.6 1zM185.2 64a34 34 0 0 1-2.5-8q-.9-5.9.9-9.2a4 4 0 0 1 6.8-.1c1.2 2 1.2 5.6.8 9.3a35 35 0 0 1-2.2 8c-1.3 2.8-1.9 4-3.8 0m13.1 15q2.6 1.1 5.5 1.2c9.6-.1 17.8-11.1 15.1-30.6-2-14.4-9-34.8-13.6-47-1.5-4-6-3-6.9.4 0 0-1.9 5.5-2 8.6-.4 6 12.2 28.7 14.2 41 1.8 11.6.8 22.8-7.4 22.8-8 0-12.8-4.7-12.8-4.7a4 4 0 0 1-.7-5 42 42 0 0 0 4.6-9c3.6-10-1.8-18-7.4-18.5h-.2c-5.6.5-11.1 8.6-7.4 18.6 1.3 3.6 3.2 6.7 4.8 9.1 1.1 1.6.9 3.7-.6 5 0 0-6 5.3-12.8 4.8-6.5-.5-9.6-11-7.9-22.6 1.9-12.7 13-34.6 13.3-41.3 0-2-1.9-8.6-1.9-8.6-1.2-4.1-5.7-3.6-6.9-.3a257 257 0 0 0-12.9 47.2c-2.5 19.5 6 30.4 15.6 30.3q2.4 0 4.6-.8l3.3-1.7 2.3-1.2a22 22 0 0 1 6.8-2.2c2.7-.1 6 1.6 7.5 2.5l3.5 1.9z"/><path d="M186.2 110.5a17 17 0 0 1-1.5-4.3q-.6-3.2.5-5c1-1.5 3.3-1.4 4.2 0 .7 1 .7 3 .4 5-.1 1.1-.8 3.3-1.3 4.3-.8 1.5-1.1 2.1-2.3 0m8 8.1q1.5.7 3.3.7c5.8 0 10.8-6 9.2-16.6a122 122 0 0 0-8.2-25.4c-1-2.3-3.6-1.7-4.2.1 0 0-1.2 3-1.3 4.7-.1 3.3 7.4 15.6 8.6 22.2 1.2 6.3.5 12.4-4.4 12.4s-7.8-2.5-7.8-2.6a2 2 0 0 1-.4-2.7q1.6-2 2.8-4.8c2.1-5.5-1.1-9.8-4.5-10h-.2c-3.3.3-6.7 4.6-4.5 10q1.3 3 3 5c.6.8.5 2-.4 2.7 0 0-3.7 2.8-7.8 2.6-4-.3-5.8-6-4.8-12.3 1.2-6.8 8-18.7 8.1-22.3 0-1.1-1.1-4.7-1.1-4.7-.7-2.2-3.4-2-4.2-.1-2.6 6.5-6.7 17.4-7.9 25.5-1.5 10.6 3.6 16.5 9.5 16.5q1.5 0 2.7-.5l2-1 1.4-.6a15 15 0 0 1 4.2-1.2c1.6 0 3.7.9 4.6 1.4l2 1zM80 126.8c-2-.1-6.1-1-8.2-2-3.5-1.3-6.4-3.1-7.5-5.3-1.5-3 .4-6 3.3-6 2.4 0 5.4 1.8 8.4 4a35 35 0 0 1 5.8 6c1.8 2.5 2.5 3.6-1.8 3.3m19.5-3.8q2.3-1.5 3.8-4.1c4.8-8.3-.6-21-18.8-28.5a253 253 0 0 0-47.3-12c-4.4-.6-5.7 3.6-3.2 6.2 0 0 3.8 4.4 6.4 6.1 5 3.3 31 4 42.6 8.5 11 4.2 20 10.7 16 17.8-4 6.8-10.6 8.7-10.7 8.7a4 4 0 0 1-4.6-2q-1.9-4-5.4-8.4c-7-8.2-16.6-7.6-19.8-3v.2c-2.4 5 1.8 14 12.3 15.7 3.7.7 7.4.7 10.3.4a4 4 0 0 1 4 3c0 .2 1.5 8-2.4 13.6-3.6 5.3-14.3 2.7-23.5-4.6-10-8-23.3-28.7-28.9-32.3a49 49 0 0 0-8.4-2.7c-4.1-1-6 3-3.7 5.8 8.2 9.7 22.2 25.6 34.3 35 15.5 12 29.2 10 34 1.7q1.2-2 1.5-4.3l.3-3.7.1-2.6c.2-2 .6-5.3 1.5-7 1.3-2.4 4.5-4.4 6-5.3l3.4-2z"/><path d="M120.7 149.4a14 14 0 0 1-4.5-1q-3.1-1-4-2.9c-.8-1.7.3-3.5 2-3.6 1.3 0 3 1 4.5 2.1a18 18 0 0 1 3 3.4c1 1.4 1.4 2-1 2m11-2.8q1.3-1 2.2-2.5c2.9-5.1.3-12.5-9.7-16.4-7.3-2.9-19-4.8-26-5.7-2.4-.3-3.3 2.3-2 3.7 0 0 2 2.5 3.4 3.5 2.7 1.8 17.1 1.4 23.5 3.7 6 2.2 10.9 5.9 8.4 10.1a12 12 0 0 1-6.2 5.5 2 2 0 0 1-2.5-1q-1-2.5-2.8-4.9c-3.6-4.7-9-4-11-1.2-1.4 3.2.6 8.3 6.5 9q3 .5 5.7 0c1 0 2 .6 2.1 1.7 0 .1.6 4.7-1.7 8-2.2 3.4-8 2-13-2-5.3-4.4-12.1-16.3-15.1-18.3-1-.6-4.7-1.4-4.7-1.4-2.2-.5-3.4 2-2.2 3.6 4.3 5.5 11.7 14.5 18.1 19.7 8.4 6.7 16 5.2 19 .1q.7-1.2 1-2.6l.2-2.2.1-1.5c.2-1.2.5-3.2 1-4.2.8-1.5 2.7-2.8 3.5-3.3l2-1.3zM124.3 81c-1.7-1.2-4.7-4-6-5.8-2.4-3-4-6-3.9-8.4.2-3.3 3.4-5 5.9-3.5 2.1 1.2 3.8 4.3 5.3 7.7.9 2 1.8 6.1 2 8 .3 3.2.4 4.4-3.3 2m18.8 6.6a14 14 0 0 0 5.4-1.7c8.3-4.8 10-18.4-1.9-34-8.9-11.6-25-26-34.9-34.2-3.4-2.8-6.7.2-5.8 3.7 0 0 1 5.7 2.4 8.5 2.7 5.4 24.8 19 32.6 28.7 7.3 9.2 11.9 19.4 4.8 23.4-7 4-13.5 2.3-13.6 2.2a4 4 0 0 1-3-4q.4-4.5-.4-10c-1.9-10.6-10.5-14.9-15.6-12.5h-.1c-4.7 3.3-5.5 13 2.7 20q4.5 3.6 8.6 5.4a4 4 0 0 1 2 4.7s-2.7 7.6-8.9 10.5c-5.9 2.8-13.7-5-18-15.9-4.6-12-5.6-36.4-8.7-42.4a48 48 0 0 0-5.9-6.6c-3-3-6.7-.3-6 3.2C80.8 49.1 85 70 90.7 84c7.4 18.2 20.2 23.5 28.5 18.7q2-1.2 3.5-3l2-3 1.5-2.2c1.2-1.6 3.2-4.3 4.8-5.3 2.3-1.4 6.1-1.5 7.8-1.5l4-.1z"/><path d="M148 121a18 18 0 0 1-3.4-3.2q-2-2.4-2-4.6c.2-1.8 2.2-2.8 3.6-2q1.8 1 2.9 4.1c.5 1 .9 3.4 1 4.4 0 1.7 0 2.5-2 1.2m10.9 3.2q1.6-.3 3.2-1.1c5-3 6.5-10.6-.1-19-5-6.2-14-13.8-19.7-18.1-1.9-1.5-4 .3-3.5 2.2 0 0 .4 3.2 1.2 4.7 1.4 3 14 9.9 18.4 15.2 4 4.9 6.5 10.5 2.2 12.9s-8 1.6-8 1.6a2 2 0 0 1-1.8-2.2q.4-2.5 0-5.6c-.7-5.8-5.7-8-8.8-6.5-2.9 2-3.6 7.5 1 11q2.5 2 5 3c1 .3 1.4 1.4 1 2.5 0 0-1.8 4.3-5.6 6-3.5 1.8-8-2.3-10.1-8.3-2.4-6.5-2.3-20.2-4-23.4-.4-1-3.2-3.6-3.2-3.6-1.7-1.5-4 0-3.7 2 .9 7 2.7 18.5 5.7 26.1 3.8 10 11.2 12.6 16.3 9.7q1.2-.7 2.1-1.8l1.4-1.7.9-1.3c.7-1 2-2.5 3-3.1 1.4-.9 3.6-1 4.6-1l2.3-.2zm132.8.1c1.2-1.6 4-4.7 5.8-6 3-2.2 6-4 8.5-4 2.8 0 4.8 3 3.3 6-1.2 2.2-4 4-7.5 5.4-2.1.8-6.2 1.8-8.2 2-4.4.2-3.7-.9-2-3.4m-17.3-.3 3.4 2c1.5 1 4.7 3 6 5.3a23 23 0 0 1 1.5 7v2.7l.3 3.6q.4 2.3 1.6 4.4c4.7 8.3 18.5 10.1 34-1.9a256 256 0 0 0 34.3-34.9c2.2-2.7.4-6.8-3.7-5.8 0 0-6.7 1.6-8.5 2.7-5.6 3.6-18.8 24.3-28.8 32.3-9.2 7.3-19.9 10-23.6 4.6-3.8-5.6-2.3-13.4-2.3-13.5a4 4 0 0 1 4-3q4.6.4 10.2-.4c10.6-1.9 14.8-10.7 12.5-15.8l-.1-.1v-.1c-3.3-4.6-13-5.3-19.8 3a42 42 0 0 0-5.4 8.4 4 4 0 0 1-4.7 2s-6.6-1.9-10.6-8.8 5-13.5 16-17.8c11.6-4.5 37.6-5.1 42.6-8.4 2.6-1.7 6.4-6.1 6.4-6.1 2.5-2.6 1.1-6.8-3.2-6.1a253 253 0 0 0-47.4 12c-18.1 7.4-23.5 20-18.7 28.4q1.5 2.4 3.7 4.1z"/><path d="M251.9 148c.6-.8 2-2.6 3-3.3 1.7-1.2 3.3-2.2 4.6-2.1 1.6 0 2.8 2 2 3.6q-.9 1.9-4 3c-1.1.4-3.3.9-4.5.9-2.4 0-2-.6-1.1-2m-9.7-.7 2 1.4a11 11 0 0 1 3.4 3.2c.5 1 .9 3 1 4.2l.2 1.6.2 2.1q.3 1.4 1 2.7c2.9 5 10.6 6.5 19-.2a126 126 0 0 0 18-19.7c1.2-1.5 0-4-2.2-3.5 0 0-3.7.7-4.6 1.4-3 2-9.9 13.8-15.2 18.2-5 4.1-10.8 5.4-13 2.1a13 13 0 0 1-1.7-8q.3-1.8 2.2-1.7 2.5.4 5.7 0c5.8-.7 7.9-5.9 6.4-9-2-2.8-7.3-3.5-11 1.2a21 21 0 0 0-2.7 4.8 2 2 0 0 1-2.6 1s-3.7-1.2-6.1-5.4c-2.5-4.3 2.4-8 8.4-10.1 6.3-2.4 20.8-2 23.5-3.8 1.4-1 3.4-3.5 3.4-3.5 1.3-1.4.4-4-2-3.7-7 1-18.7 2.9-26 5.8-10 3.9-12.6 11.2-9.7 16.3q.9 1.5 2.2 2.6zm3.9-67.7c.2-2 1.1-6 2-8.1 1.5-3.4 3.2-6.5 5.3-7.7 2.4-1.4 5.7.2 5.8 3.5.2 2.4-1.4 5.4-3.7 8.4a35 35 0 0 1-6.1 5.8c-3.6 2.4-3.6 1.1-3.3-2m-15.2 8.6h4c1.7 0 5.5.2 7.8 1.6 1.6 1 3.6 3.6 4.8 5.3l1.4 2.2 2 3q1.5 1.8 3.6 3c8.4 4.8 21.1-.5 28.5-18.7 5.7-14 9.9-34.9 12-47.4.6-3.6-3-6.2-6.1-3.2 0 0-5 4.7-6 6.6-3 6-4 30.5-8.6 42.4-4.3 11-12.1 18.6-18 15.8a20 20 0 0 1-8.8-10.4c-.7-1.8.2-3.8 1.9-4.7a42 42 0 0 0 8.6-5.5c8.2-6.9 7.4-16.6 2.8-19.9h-.1c-5.1-2.4-13.8 1.9-15.6 12.4a41 41 0 0 0-.5 10 4 4 0 0 1-3 4s-6.6 1.8-13.5-2.1c-7.1-4-2.5-14.3 4.8-23.4 7.8-9.8 29.9-23.4 32.5-28.7 1.4-2.8 2.5-8.6 2.5-8.6.8-3.4-2.5-6.4-5.9-3.6a254 254 0 0 0-34.9 34.1c-11.9 15.7-10.1 29.3-1.8 34q2.5 1.4 5.3 1.8z"/><path d="M223.6 120.4c0-1 .5-3.3 1-4.4.7-1.9 1.6-3.6 2.9-4.2 1.4-.7 3.3.3 3.5 2.1q.1 2.2-2 4.6a12 12 0 0 1-3.4 3c-2 1.3-2 .6-2-1m-8.7 4.2 2.3.2c1 0 3.3.2 4.7 1 1 .7 2.2 2.2 3 3.2l.9 1.3 1.3 1.7q.9 1 2.1 1.8c5.1 2.9 12.5.3 16.4-9.7 3-7.7 4.8-19.2 5.7-26.1.2-2-2-3.5-3.8-2 0 0-2.7 2.6-3.3 3.6-1.6 3.2-1.5 16.9-3.9 23.4-2.2 6-6.6 10-10.1 8.3-3.8-1.8-5.5-6-5.6-6-.4-1 0-2.2 1-2.6a22 22 0 0 0 5-2.8c4.6-3.7 3.9-9.1 1-11v-.1c-3.1-1.5-8.1.7-8.9 6.5q-.2 3.1 0 5.6.2 1.7-1.6 2.2s-3.9.7-8-1.6c-4.4-2.5-2-8 2-13 4.4-5.2 17-12.2 18.5-15 .7-1.6 1.2-4.8 1.2-4.8.4-1.9-1.6-3.7-3.6-2.2a126 126 0 0 0-19.6 18c-6.6 8.5-5.2 16.1-.1 19q1.4 1 3.2 1.1zm16.5 62c.6-.3 2-.7 2.8-.8q2-.2 3.1.4c1 .6.9 1.9 0 2.3q-1.2.5-3.2.3c-.7-.1-2.1-.6-2.8-.9-1-.4-1.3-.6 0-1.3m-3.6.6c0 1-.6 2-.9 2.6l-.3-.2s-1-.4-1.6-.4c-1.1 0-5.4 2.2-7.8 2.5-2.2.3-4.3 0-4.2-1.4 0-1.5.9-2.4.9-2.4a1 1 0 0 1 1-.1l1.6.8c1.9.8 3.4-.3 3.5-1.3 0-1-1.6-2.2-3.5-1.5l-1.7.9a1 1 0 0 1-1-.1s-.9-1.2-.8-2.5c.1-1.2 2.1-1.7 4.3-1.4 2.4.4 6.5 2.6 7.7 2.7l1.6-.4.5-.2c.2.6.7 1.7.7 2.4m-12.6-.3q.6-.3 1.5-.4t1.7.2c.5.3.5 1 0 1.2q-.6.3-1.7.2-.9-.1-1.5-.5-1-.3 0-.7m21.3-10.9c-6.8-1-10.6 2-10.7 5.3q0 1.2.7 2.4c-2.3-.9-5.9-2.1-8.6-2.5-3.7-.6-5.7 1-5.8 2.8q0 1 .6 1.7s.5 1 .5 1.5c0 .7-.6 1.6-.6 1.6a3 3 0 0 0-.5 1.5c0 1.8 2 3.4 5.7 3 2.5-.3 6-1.4 8.4-2.2q-.5.9-.5 1.9c0 3.3 3.8 6.2 10.5 5.4 5-.6 12.2-2.9 16.4-4.4 1.4-.5 1.1-2 0-2.4 0 0-2-.7-3-.8-2.1-.1-10 4-14.4 4.7-4 .6-7.9.1-7.8-2.7 0-2.8 1.7-4.4 1.7-4.4a1.3 1.3 0 0 1 1.7-.2 14 14 0 0 0 3 1.6c3.6 1.3 6.4-.5 6.6-2.4v-.1c-.2-2-3-4-6.5-2.7a14 14 0 0 0-3.1 1.6 1.3 1.3 0 0 1-1.8-.2s-1.7-2.2-1.5-4.5 3.9-3.2 7.9-2.6c4.4.7 11.9 4.7 14.2 4.9.7 0 3-.6 3-.6 1.4-.4 1.3-2 .1-2.4a87 87 0 0 0-16.3-4.8m-94.1 12c-.7.2-2 .7-2.8.8q-2 .3-3.2-.2c-.9-.5-1-1.8 0-2.4q1-.6 3.2-.4l2.8.8c1.3.7 1 .9 0 1.3m4.3-3 .4.2 1.7.3c1.2 0 5.3-2.3 7.7-2.7 2.2-.3 4.1.2 4.3 1.5 0 1.2-.9 2.4-.9 2.4a1 1 0 0 1-1 .1l-1.6-.9c-2-.6-3.4.4-3.5 1.5 0 1 1.6 2 3.5 1.4l1.7-1a1 1 0 0 1 .9.2s1 .9 1 2.4-2.1 1.7-4.3 1.4c-2.3-.3-6.7-2.6-7.8-2.5-.6 0-1.6.4-1.6.4l-.3.2c-.3-.5-1-1.7-1-2.6q.2-1.2.8-2.4m12 2.8-1.6.5-1.7-.1a1 1 0 0 1 0-1.3q.6-.4 1.7-.2l1.5.4c.8.4.5.5 0 .7m-37.6-6.8c-1.1.5-1.3 2 .2 2.4 0 0 2.3.7 3 .6 2.3-.1 9.8-4.1 14.2-4.8 4-.7 7.7.3 7.9 2.5a6 6 0 0 1-1.6 4.5 1.3 1.3 0 0 1-1.7.3 15 15 0 0 0-3.2-1.6c-3.5-1.3-6.2.7-6.4 2.6v.1c.2 2 3 3.8 6.5 2.5q1.8-.8 3-1.7a1.4 1.4 0 0 1 1.8.2s1.7 1.7 1.7 4.4c0 2.9-3.8 3.3-7.8 2.7-4.3-.6-12.3-4.8-14.3-4.7-1.1.1-3 .8-3 .8-1.2.4-1.5 1.9 0 2.4a89 89 0 0 0 16.3 4.4c6.8.8 10.5-2 10.5-5.4q0-1-.4-2c2.3.9 5.8 2 8.3 2.3 3.7.4 5.8-1.1 5.7-3q0-.7-.5-1.5s-.6-.9-.6-1.6c0-.5.5-1.5.5-1.5q.5-.7.6-1.7c0-1.8-2.1-3.3-5.8-2.8-2.7.4-6.3 1.6-8.6 2.5a5 5 0 0 0 .7-2.4c0-3.4-4-6.2-10.7-5.2-5.2.7-12.1 3.2-16.3 4.7m65.2-38c-.3-.6-.8-2-.9-2.8q-.2-2 .3-3.2c.5-.8 1.7-1 2.3 0q.7 1.2.4 3.2c-.1.8-.5 2.2-.8 2.8-.7 1.4-.9 1-1.3 0m3.1 4.4-.2.4-.4 1.6c0 1.3 2.3 5.3 2.7 7.7.3 2.2-.2 4.2-1.4 4.3-1.3.1-2.5-.8-2.5-.8a1 1 0 0 1-.1-1l.9-1.7c.6-1.9-.4-3.4-1.5-3.5-1 .1-2 1.7-1.4 3.5l1 1.7a1 1 0 0 1-.2 1s-.9.8-2.4.9-1.7-2.1-1.4-4.3c.3-2.3 2.6-6.6 2.5-7.7 0-.6-.4-1.7-.4-1.7l-.2-.3c.5-.3 1.7-.9 2.6-.9.7 0 1.8.5 2.4.8m-2.8 11.9-.5-1.5.1-1.8c.3-.4 1-.5 1.3 0q.4.6.2 1.8l-.4 1.5q-.5.9-.7 0m6.8-37.6c-.5-1.2-2-1.3-2.4.1 0 0-.7 2.3-.6 3 .1 2.3 4.1 9.9 4.9 14.2.6 4-.4 7.7-2.6 8a7 7 0 0 1-4.5-1.6 1.3 1.3 0 0 1-.3-1.8 15 15 0 0 0 1.7-3.1c1.2-3.5-.8-6.3-2.7-6.4-2 .2-3.8 3-2.5 6.4q.7 1.8 1.6 3.1a1.4 1.4 0 0 1-.2 1.7s-1.6 1.7-4.4 1.8c-2.8 0-3.3-3.8-2.7-7.9.6-4.3 4.8-12.2 4.7-14.3-.1-1-.8-3-.8-3-.4-1.2-1.9-1.5-2.4 0a89 89 0 0 0-4.4 16.3c-.8 6.8 2.1 10.6 5.4 10.5q1 0 2-.4a46 46 0 0 0-2.3 8.4c-.4 3.7 1.1 5.7 3 5.7q.8 0 1.5-.6s1-.6 1.6-.5l1.5.5q.7.5 1.7.5c1.8 0 3.4-2 2.8-5.7-.4-2.8-1.6-6.4-2.5-8.6a5 5 0 0 0 2.4.6c3.4 0 6.2-3.9 5.3-10.6a89 89 0 0 0-4.8-16.3m31.7 42.9a10 10 0 0 1 2-2.1q1.5-1.3 3-1.5c1 0 1.6 1 1.1 2q-.7 1.3-2.6 2c-.7.3-2 .7-2.8.7-1.5.1-1.3-.2-.7-1.1m-2.2 4.9h-.5l-1.5.5c-1 .7-3.5 4.6-5.4 6.2-1.7 1.4-3.7 1.9-4.4.9s-.5-2.5-.5-2.5a1 1 0 0 1 .8-.6l2-.1c1.9-.4 2.7-2 2.2-3s-2.4-1-3.7.6l-1 1.6a1 1 0 0 1-.9.4s-1.2-.4-2-1.7 1-2.5 3-3.3c2.1-1 7-1.1 8-1.7l1.1-1.2.2-.3c.5.3 1.7 1 2.1 1.8.3.6.5 1.7.6 2.4M211 173l1-1.1q1-.7 1.6-.8 1 .2.7 1.1-.4.7-1.4 1l-1.6.5q-1 0-.3-.7m36-13c.7-.9 0-2.3-1.4-2l-3 1c-1.8 1.3-6.3 8.6-9.8 11.4-3.1 2.6-6.8 3.6-8.1 1.7-1.4-2-.9-4.6-.9-4.6q.2-1 1.4-1.1l3.5-.2c3.7-.7 5.1-3.8 4.3-5.6-1.2-1.6-4.5-1.8-6.9 1.1q-1.2 1.5-1.8 3a1.3 1.3 0 0 1-1.6.7s-2.3-.6-3.7-3 1.6-4.7 5.4-6.2c4-1.7 13-2 14.7-3.2 1-.6 2.2-2.2 2.2-2.2.9-.9.4-2.3-1.1-2a86 86 0 0 0-16.4 4.3c-6.3 2.7-8 7.1-6.3 10l1.3 1.4c-2.4.5-6 1.3-8.4 2.3-3.4 1.5-4.3 3.8-3.4 5.4q.4.8 1.2 1.1s1 .5 1.3 1 .3 1.7.3 1.7q0 .8.4 1.6c1 1.6 3.5 1.9 6.4-.4 2.2-1.7 4.7-4.6 6.2-6.5q0 1.3.6 2.4c1.8 3 6.5 3.5 11.9-.8a95 95 0 0 0 11.7-12.2m-38.7-11.4c0-.7.4-2.1.7-2.8q.7-2 1.8-2.7c.8-.5 2 0 2 1.2q0 1.2-1.2 2.9c-.5.6-1.5 1.6-2.1 2-1.3.9-1.3.5-1.2-.6m.5 5.3-.4.2s-.9 1-1 1.3c-.6 1.1-.8 5.7-1.6 8-.8 2-2.3 3.5-3.4 3s-1.7-2-1.7-2a1 1 0 0 1 .4-.8l1.6-1c1.5-1.4 1.4-3.2.5-3.8-1-.4-2.6.4-3 2.4v1.8a1 1 0 0 1-.6.8s-1.2.3-2.5-.4-.5-2.7.9-4.4 5.5-4.4 6-5.4c.3-.6.5-1.7.5-1.7v-.3c.6 0 1.9 0 2.7.5.5.3 1.3 1.3 1.7 1.8m-8.4 9 .3-1.6q.4-1 1-1.5a.7.7 0 0 1 1.1.7q0 .7-.7 1.6-.5.7-1.1 1-.9.7-.6-.3m24.7-29.1c.1-1.2-1.1-2.1-2.2-1.1 0 0-1.7 1.7-2 2.3-1 2-1.3 10.6-3 14.7-1.3 3.8-4 6.5-6.1 5.6s-3-3.6-3-3.6a1.3 1.3 0 0 1 .6-1.6q1.4-.7 3-2c2.8-2.4 2.4-5.8.8-6.9-1.8-.8-4.8.7-5.4 4.4q-.3 2 0 3.5a1.3 1.3 0 0 1-1.1 1.4s-2.3.6-4.7-.7c-2.5-1.4-1-5 1.6-8.1 2.6-3.5 10.3-8.3 11.2-10.1.5-1 .8-3 .8-3 .3-1.2-.9-2.2-2-1.2a80 80 0 0 0-12 12c-4.1 5.4-3.5 10.1-.6 11.7a5 5 0 0 0 1.9.6 46 46 0 0 0-6.2 6.2c-2.2 3-1.8 5.5-.3 6.4q.8.4 1.7.3s1 0 1.6.3c.5.2 1.1 1.2 1.1 1.2q.5.8 1.2 1.3c1.5.9 4-.1 5.3-3.6 1-2.5 1.7-6.3 2.1-8.6a5 5 0 0 0 1.8 1.7c3 1.6 7.3-.2 9.8-6.6a84 84 0 0 0 4-16.5m-77.2 32-2.8-.8q-1.9-.7-2.6-2c-.5-1 .2-2 1.2-2q1.4.1 3 1.5l2 2c.5 1 .7 1.3-.8 1.2m3.5 1.3c.4-.8 1.5-1.5 2-1.7l.2.2 1.2 1.2c1 .7 5.8.8 8 1.7 2 .8 3.7 2.1 3 3.4s-2 1.6-2 1.6q-.7.2-1-.4t-1-1.6c-1.2-1.5-3-1.4-3.6-.6-.5 1 .3 2.7 2.2 3q1 .3 2 .2.5 0 .7.6s.3 1.4-.5 2.5c-.7 1-2.7.5-4.4-1s-4.3-5.4-5.3-6c-.4-.3-1.6-.6-1.6-.6h-.5c0-.7.2-1.9.5-2.4m10.9 6.5-1.6-.4q-1-.3-1.4-1-.2-1 .7-1 .7 0 1.5.7.7.5 1.1 1.1.8.8-.3.6m-24-1.2c5.4 4.2 10.2 3.6 11.9.8q.6-1.2.7-2.4c1.5 1.8 4 4.7 6.1 6.4 3 2.3 5.5 2 6.4.5a3 3 0 0 0 .4-1.7s0-1.2.3-1.6c.3-.6 1.3-1 1.3-1a3 3 0 0 0 1.3-1.2c.9-1.5 0-4-3.5-5.4a46 46 0 0 0-8.4-2.3q.8-.5 1.4-1.4c1.7-2.9-.1-7.3-6.4-10a88 88 0 0 0-16.4-4.4c-1.5-.2-2 1.2-1.1 2.1 0 0 1.3 1.6 2.2 2.2 1.7 1.2 10.7 1.5 14.7 3.2 3.8 1.5 7 3.8 5.5 6.2a7 7 0 0 1-3.7 3 1.3 1.3 0 0 1-1.6-.7q-.7-1.5-1.9-3c-2.3-2.9-5.7-2.7-6.8-1.1-.9 1.8.5 4.9 4.2 5.6q2 .3 3.5.2a1.3 1.3 0 0 1 1.4 1s.5 2.8-.9 4.7-5 .9-8.1-1.7c-3.4-2.8-8-10-9.8-11.3-.7-.4-3-1-3-1-1.4-.4-2 1-1.3 2a95 95 0 0 0 11.7 12.3m25.7-23-2.1-2.1q-1.3-1.6-1.3-3c0-1 1.2-1.6 2-1.1q1.1.8 1.8 2.7c.3.7.7 2 .7 2.8.1 1 .1 1.5-1.1.6m2.3 2.9c.8-.5 2-.5 2.7-.5v.3s.1 1.1.4 1.6c.5 1 4.6 3.6 6 5.5 1.4 1.7 2.3 3.6 1 4.4-1.4.7-2.6.4-2.6.4a1 1 0 0 1-.6-.8v-1.9c-.4-2-2-2.8-3-2.3-.8.6-1 2.4.5 3.7l1.7 1a1 1 0 0 1 .3 1s-.5 1.4-1.7 1.9c-1 .5-2.5-1-3.3-3-.9-2.3-1-6.9-1.6-8l-1-1.3-.5-.2c.4-.6 1.1-1.5 1.7-1.8m6 11-1-1q-.8-1-.8-1.6c0-.6.7-1 1.1-.7q.6.5 1 1.5l.4 1.5q.2 1-.7.4m-20-13c2.5 6.3 7 8.2 9.8 6.6q1.1-.7 1.8-1.8c.4 2.4 1.1 6.1 2.1 8.7 1.4 3.4 3.8 4.4 5.3 3.6a3 3 0 0 0 1.2-1.3s.6-1 1-1.3c.7-.3 1.7-.2 1.7-.2a3 3 0 0 0 1.7-.3c1.5-1 1.9-3.5-.3-6.4a51 51 0 0 0-6.1-6.2q.9 0 1.8-.6c3-1.6 3.6-6.3-.5-11.8-3-4-8.6-9-12-12-1.2-1-2.4 0-2 1.3 0 0 .3 2 .7 3 1 1.8 8.6 6.6 11.3 10 2.5 3.2 4 6.8 1.5 8.2-2.4 1.3-4.6.7-4.7.7a1.3 1.3 0 0 1-1-1.4 15 15 0 0 0-.1-3.5c-.6-3.7-3.6-5.2-5.4-4.4-1.6 1.1-2 4.5.9 7q1.5 1.2 3 1.9.8.6.6 1.6s-1 2.6-3 3.6c-2.1 1-4.8-1.8-6.3-5.5-1.5-4.2-1.8-12.7-2.9-14.8l-2-2.3c-1-1-2.3-.1-2.1 1 .7 4.4 2 11.7 4 16.6m35 81.2c.3.7.7 2 .8 2.9q.3 2-.4 3.1c-.6 1-1.8 1-2.3 0q-.6-1.2-.2-3.2c0-.7.5-2.1.8-2.8.4-1 .6-1.3 1.3 0m-.5-3.6c-1 0-2.2-.6-2.7-1q.2 0 .2-.2s.4-1 .4-1.6c.1-1.1-2.2-5.5-2.5-7.8s0-4.3 1.5-4.2 2.3.9 2.4.9q.4.3 0 1l-.8 1.6c-.7 1.9.3 3.4 1.3 3.5 1 0 2.1-1.6 1.5-3.5l-.9-1.7a1 1 0 0 1 .1-1s1.2-1 2.5-.8c1.2.1 1.7 2.1 1.4 4.3-.4 2.3-2.6 6.4-2.7 7.7l.3 1.6q0 .3.3.4c-.6.3-1.7.8-2.4.8m.3-12.7q.4.7.4 1.6.1 1-.2 1.7c-.3.5-1 .4-1.2 0q-.4-.6-.2-1.8.1-.7.5-1.5.2-.9.7 0m10.9 21.3c1-6.7-2-10.6-5.3-10.6q-1.2 0-2.4.6c.9-2.2 2.1-5.8 2.5-8.6.6-3.6-1-5.7-2.8-5.7q-1 0-1.7.5l-1.5.6c-.7 0-1.5-.6-1.5-.6a3 3 0 0 0-1.6-.6c-1.9 0-3.4 2-3 5.7.3 2.6 1.4 6 2.2 8.4q-.9-.4-1.9-.4c-3.3 0-6.2 3.7-5.4 10.5.6 5 2.9 12.1 4.4 16.3.5 1.5 2 1.2 2.4 0 0 0 .7-2 .8-3 .1-2-4.1-10-4.7-14.3-.6-4-.1-8 2.7-7.9a6 6 0 0 1 4.4 1.8 1.4 1.4 0 0 1 .2 1.7q-1 1.3-1.6 3c-1.3 3.6.5 6.3 2.4 6.5 2-.1 4-2.9 2.8-6.4a14 14 0 0 0-1.7-3.2 1.3 1.3 0 0 1 .3-1.7s2.1-1.8 4.5-1.6c2.2.2 3.2 4 2.6 8-.8 4.3-4.8 11.8-4.9 14.1 0 .8.6 3 .6 3 .4 1.5 2 1.3 2.4.2 1.5-4.1 4-11 4.7-16.3m27.7-27.7 2.8.8q1.9.7 2.6 1.9c.5 1-.2 2-1.2 2q-1.3-.1-2.9-1.4c-.6-.5-1.6-1.5-2-2.1-.6-.9-.8-1.3.7-1.1m-3.4-1.4c-.5.8-1.6 1.5-2.1 1.8l-.2-.3-1.2-1.2c-1-.6-5.8-.8-8-1.7-2-.8-3.7-2-3-3.4.8-1.2 2-1.6 2-1.6q.7 0 1 .4.3.8 1 1.6c1.2 1.6 3 1.5 3.6.6.5-1-.3-2.6-2.2-3h-2a1 1 0 0 1-.7-.7s-.3-1.4.5-2.5c.7-1 2.7-.5 4.4 1s4.3 5.4 5.3 6c.4.3 1.6.6 1.6.6h.5a6 6 0 0 1-.5 2.4m-10.9-6.5 1.6.3q1 .5 1.4 1 .3 1-.7 1.2-.7-.1-1.5-.8-.7-.5-1.1-1.1-.7-.7.3-.6m24 1.2c-5.4-4.2-10.2-3.6-11.9-.8q-.6 1.2-.7 2.4c-1.5-1.9-4-4.7-6.1-6.4-3-2.3-5.5-2-6.4-.5a3 3 0 0 0-.4 1.7s0 1.2-.3 1.6c-.3.6-1.3 1-1.3 1a3 3 0 0 0-1.3 1.2c-.9 1.5 0 4 3.5 5.4 2.3 1 6 1.8 8.4 2.3q-.8.5-1.4 1.4c-1.7 2.9.1 7.3 6.4 10a88 88 0 0 0 16.4 4.4c1.5.2 2-1.3 1.1-2.2 0 0-1.3-1.5-2.2-2.1-1.7-1.2-10.7-1.5-14.7-3.2-3.8-1.5-7-3.8-5.5-6.2 1.4-2.4 3.7-3 3.7-3a1.3 1.3 0 0 1 1.6.7q.7 1.5 1.9 3c2.3 2.9 5.7 2.7 6.8 1.1.9-1.8-.5-4.9-4.2-5.6l-3.5-.2a1.3 1.3 0 0 1-1.4-1s-.5-2.8.9-4.7 5-.9 8.1 1.7c3.4 2.8 8 10 9.8 11.3.7.4 3 1 3 1 1.4.4 2-1 1.3-2a95 95 0 0 0-11.7-12.3m-25.6 23 2 2q1.4 1.7 1.4 3c-.1 1.1-1.2 1.7-2.1 1.2q-1-.7-1.8-2.7c-.3-.7-.6-2.1-.7-2.8 0-1 0-1.5 1.2-.7m-2.3-2.8c-.8.5-2.1.5-2.7.5v-.4s-.2-1-.5-1.6c-.5-1-4.6-3.6-6-5.4-1.4-1.7-2.3-3.7-1-4.4 1.4-.7 2.6-.4 2.6-.4a1 1 0 0 1 .6.8v1.8c.4 2 2 2.8 3 2.4.9-.6 1-2.4-.5-3.7l-1.6-1a1 1 0 0 1-.4-1s.5-1.4 1.7-2c1.1-.4 2.6 1 3.3 3 .9 2.3 1 7 1.6 8 .2.4 1.1 1.3 1.1 1.3l.4.3c-.4.5-1 1.5-1.6 1.8m-6.1-11q.6.3 1.1 1 .6 1 .7 1.6-.2 1-1.1.6-.6-.4-1-1.4l-.3-1.5c0-.6-.1-.9.6-.4m20 13c-2.5-6.3-6.9-8.2-9.8-6.6q-1 .6-1.8 1.8c-.4-2.4-1-6.2-2-8.7-1.5-3.4-3.9-4.5-5.4-3.6a3 3 0 0 0-1.2 1.3s-.6 1-1 1.2c-.6.4-1.7.3-1.7.3a3 3 0 0 0-1.7.3c-1.5 1-1.9 3.5.3 6.4 1.6 2 4.3 4.6 6.1 6.2l-1.8.6c-3 1.6-3.6 6.3.5 11.8 3 4 8.6 9 12 12 1.2.9 2.4-.1 2-1.3 0 0-.3-2-.8-3-.9-1.9-8.5-6.7-11.2-10-2.5-3.3-4-6.8-1.6-8.2 2.5-1.3 4.7-.7 4.7-.7a1.3 1.3 0 0 1 1 1.4 15 15 0 0 0 .2 3.5c.6 3.7 3.6 5.2 5.4 4.4 1.6-1.2 2-4.5-.9-7q-1.5-1.2-3-1.9-1-.6-.6-1.6s1-2.6 3-3.6c2.1-1 4.8 1.7 6.3 5.5 1.5 4.2 1.8 12.7 2.9 14.8.3.6 2 2.3 2 2.3 1 1 2.3.1 2.1-1-.7-4.5-2-11.7-4-16.6M148.6 210c-.4.5-1.4 1.6-2 2q-1.5 1.4-3 1.5c-.9 0-1.6-1-1-2q.6-1.2 2.5-2l2.8-.7c1.5 0 1.3.3.7 1.2m2.2-5h.5l1.6-.5c1-.7 3.4-4.6 5.3-6.1 1.7-1.4 3.7-2 4.4-1 .7 1.1.5 2.6.5 2.6a1 1 0 0 1-.8.6h-1.9c-2 .4-2.7 2.1-2.3 3v.1c.6.8 2.4 1 3.7-.6l1-1.6a1 1 0 0 1 .9-.4s1.2.3 2 1.6-.9 2.6-3 3.4c-2.1.9-7 1-8 1.7l-1.1 1.2-.2.2c-.5-.2-1.6-1-2-1.7s-.6-1.8-.6-2.5m11.7-3.5-1.1 1.1q-.8.7-1.6.8-.9-.2-.6-1.1.3-.7 1.4-1l1.5-.4q1 0 .4.6m-36 13c-.7.9 0 2.3 1.3 2 0 0 2.4-.6 3-1 1.9-1.3 6.4-8.6 9.8-11.4 3.2-2.6 6.8-3.6 8.1-1.7 1.4 2 1 4.6 1 4.7a1.3 1.3 0 0 1-1.4 1l-3.6.2c-3.6.7-5 3.8-4.2 5.6 1.1 1.6 4.5 1.8 6.8-1.1q1.2-1.5 1.9-3a1.4 1.4 0 0 1 1.6-.7s2.3.6 3.7 3-1.7 4.7-5.5 6.3c-4 1.6-13 2-14.7 3l-2.2 2.3c-.8.8-.3 2.3 1.2 2 4.4-.7 11.7-2.3 16.3-4.3 6.3-2.7 8-7.1 6.4-10l-1.3-1.4a46 46 0 0 0 8.3-2.3c3.4-1.5 4.4-3.9 3.5-5.4a3 3 0 0 0-1.3-1.1s-1-.5-1.3-1c-.2-.5-.3-1.7-.3-1.7q.1-.8-.4-1.7c-.9-1.5-3.5-1.8-6.4.5a47 47 0 0 0-6.1 6.4q0-1.2-.7-2.4c-1.7-2.8-6.5-3.4-11.8.8-4.1 3.3-9 9-11.7 12.3m38.6 11.5c0 .7-.3 2.1-.7 2.8q-.7 1.9-1.8 2.7c-.8.5-2 0-2-1.2q0-1.3 1.3-3c.5-.6 1.5-1.6 2.1-2 1.2-.8 1.2-.4 1.1.7m-.5-5.4q.3 0 .4-.2s1-.9 1.1-1.2c.6-1.2.8-5.8 1.6-8 .8-2.1 2.2-3.6 3.4-3 1.1.5 1.6 1.9 1.6 1.9a1 1 0 0 1-.3.9l-1.6 1c-1.6 1.3-1.4 3.2-.5 3.8 1 .4 2.6-.4 3-2.4v-1.9a1 1 0 0 1 .5-.8s1.3-.3 2.6.4c1.3.8.5 2.7-.9 4.4-1.4 1.9-5.6 4.5-6 5.5-.3.5-.5 1.6-.5 1.6v.4c-.6 0-1.9 0-2.7-.5a8 8 0 0 1-1.7-1.9m8.4-8.9-.3 1.5q-.4 1.1-1 1.5-.9.4-1.1-.7 0-.7.7-1.5.5-.8 1.1-1.1.9-.7.6.3m-24.7 29.2c-.1 1.2 1.1 2 2.2 1 0 0 1.7-1.6 2-2.3 1-2 1.3-10.6 3-14.7 1.4-3.8 4-6.5 6.1-5.6s3 3.6 3 3.6a1.3 1.3 0 0 1-.6 1.7q-1.4.6-3 1.9c-2.8 2.4-2.4 5.8-.8 7 1.8.7 4.8-.8 5.4-4.5q.3-1.8 0-3.4a1.4 1.4 0 0 1 1.1-1.5s2.3-.6 4.7.8 1 4.9-1.6 8.1c-2.6 3.4-10.3 8.2-11.2 10-.5 1-.8 3-.8 3-.3 1.2.9 2.3 2 1.3 3.5-3 9-8 12-12 4.2-5.4 3.5-10.2.6-11.8a5 5 0 0 0-1.9-.6c1.9-1.6 4.6-4 6.2-6.1 2.2-3 1.8-5.5.3-6.4q-.8-.4-1.7-.4s-1 .1-1.6-.2c-.5-.3-1.1-1.3-1.1-1.3q-.5-.8-1.2-1.3c-1.5-.9-4 .2-5.3 3.6-1 2.6-1.7 6.3-2.1 8.7q-.7-1-1.8-1.8c-2.9-1.6-7.3.3-9.8 6.6a89 89 0 0 0-4 16.5m-22.2-72.1c.8-2.7 0-4.6 0-4.6s-.7-1.4-1.4 1a6 6 0 0 1-4 4.1c-2 .6-.1 1.7-.1 1.7 1.6 1.2 1.6 2 2.3 2.2.8.3 2.6-2.4 3.2-4.4m17.5-27.6c2-2 2.3-4 2.3-4s0-1.5-1.7.1a6 6 0 0 1-5.5 1.6c-2.1-.5-1 1.4-1 1.4.9 2 .4 2.5 1 3.1s3.4-.8 5-2.2m56.9 107.9c-2.8.7-4 2.3-4 2.3s-.8 1.3 1.6.7c2-.4 4.2.1 5.5 1.4 1.6 1.5 1.6-.7 1.6-.7.2-2.1.9-2.4.7-3.2-.1-.7-3.4-1-5.4-.5m48.2-75.5c.7 2.7 2.3 4 2.3 4s1.3.8.7-1.6c-.4-2 0-4.2 1.4-5.6 1.5-1.5-.7-1.5-.7-1.5-2.1-.2-2.4-.9-3.2-.7s-1 3.4-.5 5.4m-1.7 32.5c-.8 2.8 0 4.6 0 4.6s.7 1.4 1.5-1c.6-1.9 2.1-3.6 4-4 2-.7 0-1.7 0-1.7-1.6-1.3-1.5-2-2.3-2.3s-2.6 2.4-3.2 4.5m-17.5 27.6c-2 2-2.3 4-2.3 4s0 1.5 1.8-.2c1.5-1.4 3.7-2 5.5-1.6 2 .5 1-1.4 1-1.4-.9-1.9-.5-2.5-1-3-.5-.7-3.5.7-5 2.2m-105-31.7c-.5-2.8-2-4.1-2-4.1s-1.2-1-.9 1.5c.3 2-.4 4.1-1.8 5.4-1.7 1.4.6 1.5.6 1.5 2 .5 2.2 1.1 3 1 .8 0 1.4-3.2 1-5.3m44.4 46.4c-2.6-1.3-4.6-.8-4.6-.8s-1.5.4.8 1.6q2.9 1.5 3.4 4.6c.2 2.1 1.6.4 1.6.4 1.5-1.5 2.2-1.3 2.6-2s-2-3-3.8-3.9m-28.5-17.5c-1.7-2.2-3.7-2.7-3.7-2.7s-1.6-.2 0 1.8a6 6 0 0 1 1 5.6c-.6 2 1.4 1 1.4 1 2-.6 2.5-.1 3.1-.6s-.4-3.5-1.7-5.1M172 125.4c2.8-.5 4-2 4-2s1-1.3-1.4-.9a6 6 0 0 1-5.5-1.7c-1.5-1.5-1.6.6-1.6.6-.3 2.1-1 2.4-.9 3.2.1.7 3.3 1.2 5.4.8m32.8 1.3c2.7 1 4.6.3 4.6.3s1.5-.6-.9-1.5a6 6 0 0 1-3.8-4.3c-.5-2-1.7-.2-1.7-.2-1.3 1.6-2 1.5-2.4 2.2s2.3 2.8 4.2 3.5m27.8 16.6c1.7 2.3 3.6 2.8 3.6 2.8s1.6.3.1-1.7a6 6 0 0 1-.8-5.7c.8-2-1.3-1.1-1.3-1.1-2 .5-2.5 0-3.2.5s.4 3.5 1.6 5.2"/><path d="M227.6 187.2a40.9 40.9 0 1 0-81.9 0 40.9 40.9 0 0 0 81.9 0"/></g></svg>
